<?xml version="1.0" encoding="UTF-8"?>
<svg id="Layer_1" xmlns="http://www.w3.org/2000/svg" version="1.1" viewBox="0 0 164.13 57.53">
  <!-- Generator: Adobe Illustrator 30.5.1, SVG Export Plug-In . SVG Version: 2.1.4 Build 3)  -->
  <defs>
    <style>
      .st0 {
        fill: #f3982f;
      }

      .st1 {
        fill: #d05f0a;
      }

      .st2 {
        stroke: #bce3e8;
        stroke-miterlimit: 10;
        stroke-width: .75px;
      }

      .st2, .st3, .st4 {
        fill: #fff;
      }

      .st5 {
        font-size: 6px;
      }

      .st5, .st6 {
        fill: #14727c;
      }

      .st5, .st4 {
        font-family: NazareExuberant-Bold, 'Nazare Exuberant';
        font-weight: 700;
      }

      .st7 {
        fill: #bce3e8;
      }

      .st4 {
        font-size: 7px;
      }

      .st8 {
        fill: #fdfdfd;
      }
    </style>
  </defs>
  <g>
    <path class="st6" d="M36.81,28.7c-.35.34-.67.78-1.04,1.06-.67.51-1.46.76-2.07,1.61,2.11-.15,3.4,1.21,3.52,2.93s-1.03,3.32-2.91,3.4c-1.26.06-2.21-.78-2.68-1.7-.61-1.2-.43-2.33.4-3.57l-2.25,1.17c-.38.2-.91.39-1.38.46-1.18.17-2.49.68-3.68.36-.83-.22-1.24-.22-2.05.03-1.08.33-2.31-.23-3.43-.35l-1.45-.57-2.29-1.1c.45.89.69,1.54.63,2.47-.1,1.59-1.36,2.68-2.86,2.75s-2.89-1.11-2.98-2.75c-.12-2.07,1.26-3.7,3.52-3.58-.64-.73-1.22-1.06-1.99-1.54-.31-.19-.66-.71-.98-1.02-2.39-2.35-4.42-4.8-6.05-7.78C2.35,16.57.8,11.89,0,6.68l5.54,5.39,5.27,4.24c-.34-2.11-1.5-2.58-2.15-3.15-.37-.32.03-1-.05-1.31-.97-2.23-2.26-4.17-3.69-6.35,1.76-.28,3.18.79,4.29,2.37l.72-1.9c.41-1.08,1.58-1.53,2.63-1.28,1.11.26,1.82,1.37,1.57,2.61l-.57,2.84c-.2.99.48,1.91,1.7,1.74-.13-.77-.21-1.52.24-2.07.51-.62,1.28-.73,2-.52.63.19.98.78,1.44,1.42.32.44,1.09-.08,1.26-.4.27-.53.28-1.21-.25-1.65l-2.22-1.82c-.77-.63-1-1.7-.57-2.67.32-.71,1.26-1.22,2.25-1.12,1.09.12,1.56.89,2.47,1.55-.14-2.06.58-3.48,1.81-4.64,1.36,1.37,1.8,2.77,1.84,4.62.89-.96,1.42-1.48,2.27-1.58,1-.12,1.97.17,2.43,1.22.41.97-.16,2.1-.94,2.78-1.06.93-2.55,1.43-2.16,2.97.1.41,1.05,1.12,1.32.65.58-1,1.36-1.74,2.35-1.53,1.14.24,1.59,1.3,1.2,2.56.78.25,1.13-.1,1.41-.42.34-.4.48-.99.35-1.59l-.54-2.37c-.25-1.11.15-2.04,1.07-2.58.84-.5,2.04-.25,2.75.59.56.65.61,1.38.94,2.39,1.17-1.46,2.41-2.46,4.36-2.49-1.27,2.13-2.64,4.09-3.64,6.39-.12.27.19.9.03,1.13-.24.35-.55.61-1.09.76-.45.9-1.24,1.62-1.22,2.93,4.28-2.87,7.8-6.08,11.21-9.88-1.35,8.64-4.46,16.05-10.82,22.14ZM4.7,16.95c1.3,2.27,3,4.28,5.27,5.81,1.13,1.79,2.33,3.36,3.7,4.96,1.93,2.23,4.17,4.08,6.79,5.44,4.14,2.15,7.75-.19,11.11-3.18,2.36-2.22,4.25-4.67,6.02-7.43,2.63-1.88,4.64-4.3,6.11-7.09l.03-.17.2-.33c.79-1.27,1.59-2.62,1.62-4.5-2.05,1.89-3.87,3.6-6.04,5.13-1.86,1.31-3.32,2.85-4.8,4.58l.1-1.86c-3.64-1.32-7.39-1.73-11.29-1.68s-7.44.39-11.09,1.75c.18,1.31.96,2.18.06,2.02-1.25-2.9-3.29-2.42-3.62-4.23-2.47-1.78-4.78-3.55-6.92-5.92.33,2.66,1.6,4.68,2.75,6.69ZM13.26,33.4c0-.53-.43-.96-.96-.96s-.96.43-.96.96.43.96.96.96.96-.43.96-.96ZM34.29,33.46c0-.53-.43-.96-.96-.96s-.96.43-.96.96.43.96.96.96.96-.43.96-.96Z"/>
    <path class="st1" d="M46.4,33.07c-.25.71-.68,1.66-.45,2.43.71,2.34.41,4.57-.73,6.72-2.34,4.39-6.81,7.34-11.82,7.5-1.85.06-3.25-1-4.19-2.42-.25-1.03-.9-1.72-.65-3.07l3.63-1.71c-1.38-1.32-3.16-2.1-4.08-3.77l-1.21-2.21c-.11-.19-.09-.51-.19-.62-.13-.14-1.75.41-2.92,1.01l-2.85-1.13-2.11,4c-.63,1.21-1.37,2.25-2.43,3.26.64.87,2.49.88,2.33,1.67l-.38,2.43c-1.06,1.95-2.88,2.73-5.22,2.5-4.75-.48-9-3.59-11.09-7.89-1.03-2.13-1.07-4.23-.47-6.43.16-.58-.29-1.43-.42-1.9-.77-2.72-1.4-5.43-.94-8.39.81,1.72,1.16,3.49,2.9,4.69C1.41,25.33.39,20.75,1.08,15.83c1.33,3.94,3.27,7.44,6.02,10.52.94,1.05,1.02,2.34.43,3.62-1.69,4.04-3.62,8.91-.26,11.84,1.49,1.3,3.4,2.19,5.44,2.26,3.99.14,5.94-5.16,7.72-8.64,1.13-.2,2.13.81,3.16.81,1.09,0,2.17-.99,3.5-.77.93,3.84,5.19,7.29,8.88,7.66,3.01.31,5.63-1.5,6.21-4.47.32-1.65.18-3.31-.47-4.88l-1.76-4.23c-.41-.99-.41-2.03.35-2.86,2.88-3.18,4.97-6.82,6.29-11.01.52,4.39-.06,8.77-1.91,12.77-.25.2-.13.54.24.56,1.14-1.09,1.7-2.43,2.39-4.01.39,2.83,0,5.42-.9,8.05Z"/>
    <path class="st7" d="M46.4,33.07c.84,2.59,1.53,5.39.56,8.08-1.96,5.45-7.15,9.28-12.83,9.73-2.78.22-4.63-.86-6.3-3.21-.73,3.84-2.08,6.81-4.11,9.86-2.01-3.03-3.35-6.06-4.12-9.88-1.43,2.29-3.34,3.35-5.95,3.24-4.44-.19-8.26-2.46-11.03-5.9s-3.36-7.73-1.47-11.56c.13.47.58,1.33.42,1.9-.6,2.2-.57,4.3.47,6.43,2.09,4.3,6.34,7.41,11.09,7.89,2.34.23,4.16-.55,5.22-2.5,1.57-2.88,2.16-6.35,5.27-8.96,3.59,2.34,3.85,6.48,5.59,9.1.95,1.43,2.34,2.48,4.19,2.42,5.01-.16,9.49-3.11,11.82-7.5,1.15-2.15,1.44-4.38.73-6.72-.23-.77.2-1.71.45-2.43ZM23.68,55.42c2.07-3.16,2.91-6.34,3.31-9.71-.71-2.22-1.6-4.17-3.29-5.85-1.5,1.68-2.6,3.61-3.19,5.84.31,3.48,1.4,6.78,3.17,9.73Z"/>
    <path class="st1" d="M11.8,29.8c-2.17,1.06-3.46,3.1-3.14,5.46.27,2.06,1.99,3.99,4.33,4.07,3.15.1,5.18-2.92,4.79-5.79l1.45.57c.04,1.96-.71,3.83-2.09,5.12s-3.4,1.92-5.43,1.4c-2.6-.67-4.31-3.02-4.54-5.56s1.23-5.06,3.64-6.29c.31.31.67.83.98,1.02Z"/>
    <path class="st1" d="M36.81,28.7c2.43,1.46,3.87,3.99,3.38,6.9-.42,2.44-2.21,4.7-4.95,5.15-1.97.32-3.86-.36-5.17-1.7s-1.92-3.12-1.66-4.97c.47-.07,1-.26,1.38-.46-.47,2.79,1.35,5.59,4.33,5.73,2.33.12,4.44-2.32,4.7-3.83.04-.16.05-.28.06-.38.18-2.26-1.07-4.23-3.09-5.37.36-.28.69-.73,1.04-1.06Z"/>
    <path class="st0" d="M43.69,15.46c-1.47,2.78-3.48,5.21-6.11,7.09-1.77,2.75-3.66,5.21-6.02,7.43-3.36,2.99-6.97,5.33-11.11,3.18-2.62-1.36-4.86-3.21-6.79-5.44-1.37-1.6-2.57-3.17-3.7-4.96-2.27-1.53-3.97-3.54-5.27-5.81,1.37,1.13,2.42,3.05,4.09,4.06,1.06.64,2.26.99,2.96,2.29,3.49-3.77,8.92-4.78,13.95-4.51,3.79.2,7.11,2.03,9.76,4.86,1-1.58,1.97-2.21,3.29-2.86,1.09-.54,1.78-1.74,2.61-2.59,1.53-1.56,1.78-2.83,2.33-2.74Z"/>
    <path class="st1" d="M43.92,14.97c-.1.09-.17.2-.2.33l-.03.17c-.54-.09-.8,1.18-2.33,2.74-.83.85-1.52,2.05-2.61,2.59-1.31.65-2.29,1.28-3.29,2.86-2.64-2.83-5.97-4.65-9.76-4.86-5.03-.27-10.47.75-13.95,4.51-.7-1.31-1.9-1.65-2.96-2.29-1.67-1.01-2.72-2.93-4.09-4.06-1.15-2.01-2.42-4.03-2.75-6.69,2.14,2.38,4.45,4.15,6.92,5.92.33,1.81,2.37,1.33,3.62,4.23.9.16.12-.72-.06-2.02,3.65-1.36,7.3-1.7,11.09-1.75s7.65.35,11.29,1.68l-.1,1.86c1.48-1.73,2.93-3.27,4.8-4.58,2.17-1.53,3.99-3.23,6.04-5.13-.03,1.88-.83,3.23-1.62,4.5Z"/>
    <circle class="st8" cx="33.33" cy="33.46" r=".96"/>
    <circle class="st8" cx="12.3" cy="33.4" r=".96"/>
    <path class="st0" d="M43.72,15.29c.03-.13.1-.24.2-.33l-.2.33Z"/>
    <path class="st0" d="M29.21,47.3c-1.74-2.63-2-6.76-5.59-9.1-3.1,2.62-3.7,6.09-5.27,8.96l-.07-2.33c.07-.89-1.24-.9-1.88-1.76,1.06-1.01,1.79-2.05,2.43-3.26l2.11-4,2.85,1.13c1.17-.59,2.79-1.15,2.92-1.01.1.11.16.31.7,1.53l1.11,1.6c1.2,1.48,2.28,2.15,3.66,3.46l-1.33.74c-1.36.76-2.06,2.33-1.69,3.84.02.06.03.13.05.19Z"/>
    <path class="st0" d="M23.68,55.42c-1.77-2.95-2.86-6.25-3.17-9.73.59-2.23,1.68-4.16,3.19-5.84,1.69,1.68,2.58,3.64,3.29,5.85-.4,3.37-1.24,6.55-3.31,9.71Z"/>
  </g>
  <g>
    <path class="st7" d="M75.96,36.89l-.02-9.71c0-.38-1.39-.49-1.51-.13l-2.9,16.49c-1.97.32-3.76.72-5.77,1.2l-3.14-17.43-1.29-.23c.17-1.91.08-3.68.08-5.74l23.71-.03,2.33,2.21c.36-.76.09-1.48.16-2.22l4.03-.06,1.68-4.45h5.92s-2.7,4.5-2.7,4.5h17.11c.03.69-.15,1.14.11,2l1.87-1.98h7.35s2.16,2.23,2.16,2.23l2.39-2.25h7.05s2.02,2.04,2.02,2.04c.27-.89.07-1.38.09-2.02h13.9s0,5.7,0,5.7c-.52-.08-1.33-.2-1.56.12l-2.51,3.44,2.69,6.1c.22.51,1.41.68,1.84.43l1.76-9.64c.05-.29-.47-.66-.66-.82v-5.37c.63.04,1.46.19,1.88-.11l1.97-4.57,5.83-.08-2.86,4.73,2.84.05-.04,5.84c-.43.4-.65.8-.53,1.51l1.84,10.66,1.04.43.04,5.99c-9.02-2.41-18.04-3.89-27.28-5.1l-.11-2.04-2.1,1.81-7.09-.49-2.28-2.33-2.22,2.09-7.29-.27-2.23-2.32-.06-8.6-3.61-.08.02,5.57c0,.21.64.4.96.32l.06,5.26-7.38.1v-5.13s.9-.4.9-.4l.03-5.72h-3.73s-.25-1.93-.25-1.93l-.18.13v10.85s-2.44,2.47-2.44,2.47l-6.82.43c-.76-.7-1.32-1.42-2.25-1.97l-.03,2.23c-4.68.63-9.18,1.3-13.76,2.2l-.03-5.48.99-.46ZM157.95,21.17l2.2-3.72-3.55.04-1.42,3.68h2.77ZM95.49,21.14l2.04-3.41h-3.58s-1.37,3.43-1.37,3.43c1.07.12,1.92.17,2.91-.02ZM62.44,26.16c.39.06.82.15.94.24.14.12.08.42.13.68l3.03,16.57,3.91-.94c.67-.16.49-.86.57-1.35l2.66-15.24.94-.4-.06-3.47h-5.35s0,3.6,0,3.6c.42.08.68.17.9.35l-1.48,8.93-1.69-8.86.86-.52-.15-3.48c-1.94.19-3.47.15-5.27.06l.09,3.83ZM83.09,36.47c.11.35-.42.71-.51.89l.08,3.14,5.14-.74.02-3.35-1.08-.15-1.31-4.41c.46-.45,1.4-.91,1.41-1.54l.02-6.14-1.99-1.98-8.95.03-.05,3.34c0,.28.59.42.92.5l.02,11.61-.94.39v3.6s5.4-.89,5.4-.89l.06-3.4c-.41-.06-.68-.1-.96-.26l.05-3.88c.5-.24,1.04-.29,1.61-.19l1.08,3.43ZM100.2,22.19h-5.16s-.04,3.13-.04,3.13l.8.49-.03,10.03h-2.68s-.04-10.03-.04-10.03l.82-.52-.03-3.1h-5.24c-.11,1.16-.07,2.18.01,3.29l.88.37.07,11.84,1.91,1.81c3.81-.74,6.18.83,7.88-2.61l.04-11.23c.39-.12.63-.21.91-.39l-.08-3.07ZM109.95,38.55l-.02-3.18c-.14-.19-.61-.28-.99-.3v-9.3c0-.33.45-.41.6-.28.37.3-.08,1.74.41,1.86.92.22,1.82.14,2.73.03l.06-5.21h-11.22c.12,1.83.02,3.46.02,5.27.94-.03,1.88.19,2.79-.05.62-.16-.12-1.64.28-1.97.13-.1.67-.09.67.17v9.61c-.35-.03-.86.19-.86.39l.08,3.05c1.95-.17,3.58-.13,5.44-.09ZM122.85,38.72l1.68-1.76v-12.78s-1.99-2-1.99-2h-6.52s-1.72,1.77-1.72,1.77v12.75s1.72,1.82,1.72,1.82l6.83.2ZM132.51,35.88c-.93.05-1.82.05-2.67-.27-.06-3.4.09-6.6-.15-9.97.92-.19,1.79-.16,2.7,0,.22.78.09,1.44.11,2.27l3.59.25-.11-3.81c-.02-.72-1.17-1.93-1.91-2.04-2.05-.29-4.04-.16-6.11-.07-.81.28-1.51,1.39-1.98,2.07.17,4.36.32,8.38.23,12.75.63.62,1.3,1.93,2.28,2l5.64.4c.69-.23,1.93-1.22,1.95-1.9l.1-4.01-3.61-.26-.07,2.58ZM149.73,41.63l-.06-3.55c0-.24-.77-.33-1.05-.38l-3.15-7.43,3.04-4.08,1.16-.32-.11-3.65-5.17.04c-.43,1.38.07,2.87,0,4.07-.51,1.18-1.46,2.15-2.21,3.19l-.05-3.42c.16-.21.74-.43.73-.78l-.05-3.12-5.19.05-.05,3.2.88.38.06,10.27-.81.7.14,3.02,5.17.63-.05-3.31-.74-.36c-.12-.06-.57-2.8.97-3.67l1.51,3.81-.42.84.07,2.99,5.39.87ZM157.85,37.25c1.09.61.51,1.82.22,2.53-.43,1.06-.04,2.31-.13,3.43l5.29,1.34-.11-4.07c-.6-.36-.94-.77-1.07-1.57l-2.03-12.4.81-.52-.07-3.79-7.67.05-.03,3.51c.32.16.57.26.81.5l-2.08,11.82c-.24.04-.8.21-.8.41v3.35s5,1.01,5,1.01v-3.64c-.09-.2-.45-.39-.65-.51l.38-1.8c.57.12,1.57.02,2.14.34ZM94.95,34.93v-8.5c-.2-.09-.82-.15-1.07.12l.07,8.44,1.01-.05ZM137.1,35.62c.12.05.32.03.42-.12l-.03-9.01h-.38s-.21,2.53-.21,2.53l-5.26-.19c-.24-1.45.25-2.61-.68-2.49-.28.03-.42.25-.42.64l.04,7.72c0,.33.99.43,1.07.16.25-.85,0-1.62-.02-2.42l5.37.28.1,2.9ZM87.44,35.49c.09.27,1.1.14,1.1-.18l.04-8.31c0-.33-.29-.4-.42-.43-.08-.02-.42-.06-.42.11l.02,4.28-1.38,1.36,1.05,3.17ZM69,27.08c.03-.22-.89-.22-.89.09-.02.94.04,1.73.54,2.57l.35-2.66ZM81.57,36.25c.6-.78.16-1.35-.13-1.84-.12.68-.23,1.2.13,1.84ZM143.44,36.22c.15-.16-.11-.8-.42-.81s-.29.58-.18.77c.07.12.45.17.6.04ZM157.39,38.14c-.09-.18-.64-.2-.9-.05.08.21.26.33.38.42.15.11.67.09.51-.36Z"/>
    <path class="st0" d="M149.73,41.63l-5.39-.87-.07-2.99.42-.84-1.51-3.81c-1.54.87-1.09,3.62-.97,3.67l.74.36.05,3.31-5.17-.63-.14-3.02.81-.7-.06-10.27-.88-.38.05-3.2,5.19-.05.05,3.12c0,.36-.57.58-.73.78l.05,3.42c.75-1.04,1.7-2.01,2.21-3.19.07-1.2-.44-2.69,0-4.07l5.17-.04.11,3.65-1.16.32-3.04,4.08,3.15,7.43c.28.05,1.05.14,1.05.38l.06,3.55ZM149.2,40.95c.1-.94.1-1.64-.07-2.47-.3-.15-.77-.29-.97-.53-1.1-2.54-2-5.07-3.27-7.57l2.73-3.84c.88-1.23,1.95-1.04,1.29-3.64l-4.09-.16-.05,2.51c.42.03.68.02,1,.28l-4.27,5.93c.05-2,.19-3.95.02-5.88.33-.15.85-.36.84-.7l-.05-2.19-4.06.02c-.61,2.43.73,2.3.74,3.57l.05,9.8c0,.26.16.69.02.76l-.7.34c-.26.59-.15,1.54,0,2.13l3.93.63c.12-.77.13-1.56-.02-2.29-.16-.13-.62-.36-.63-.6-.22-2.31-.17-3.25,1.67-4.9l2.12,5.24c.14.35-.46.55-.56.73-.05.58.01,1.55.19,2.14l4.14.71Z"/>
    <path class="st0" d="M62.44,26.16l-.09-3.83c1.79.1,3.33.13,5.27-.06l.15,3.48-.86.52,1.69,8.86,1.48-8.93c-.22-.18-.48-.27-.9-.35v-3.6s5.36,0,5.36,0l.06,3.47-.94.4-2.66,15.24c-.08.48.1,1.18-.57,1.35l-3.91.94-3.03-16.57c-.05-.26.01-.57-.13-.68-.12-.1-.55-.18-.94-.24ZM69.83,22.93c-.1.99-.13,1.6,0,2.36l.82.52-2.06,12.54-2.24-12.52c.3-.14.8-.35.8-.54l.02-2.45-4.29.03.04,2.65c.23.12.77.25.93.51l3.08,16.8c1.24-.03,2.33-.27,3.37-.73l2.9-16.3.91-.52-.1-2.28c-1.36-.33-2.73-.24-4.19-.06Z"/>
    <path class="st0" d="M157.85,37.25c-.57-.32-1.57-.23-2.14-.34l-.38,1.8c.2.12.57.31.67.51v3.64s-5.01-1.01-5.01-1.01v-3.35c0-.2.56-.37.8-.41l2.08-11.82c-.24-.24-.49-.33-.81-.5l.03-3.51,7.67-.05.07,3.79-.81.52,2.03,12.4c.13.8.47,1.21,1.07,1.57l.11,4.07-5.29-1.34c.09-1.12-.3-2.37.13-3.43.29-.71.87-1.92-.22-2.53ZM158.61,36.75c.23,1.08.64,2.12.45,3.09-.94.46-.71,2.76-.39,2.93,1.23.63,2.65.71,3.94.97l.12-2.85c-.9-.26-1.03-.89-1.17-1.71l-2.21-13.31.92-.38v-2.62s-6.67.03-6.67.03c-.07.67-.14,1.74.08,2.31.08.21.82.36.75.81l-2.13,12.54c-.31.11-.68.28-.77.47-.13.83-.12,1.62.09,2.42l3.79.68.09-2.45c-.04-.21-.55-.45-.68-.69.01-.97.15-1.81.41-2.69l3.39.46Z"/>
    <path class="st0" d="M100.2,22.19l.08,3.07c-.28.18-.53.26-.91.39l-.04,11.23c-1.7,3.44-4.07,1.87-7.88,2.61l-1.91-1.81-.07-11.84-.88-.37c-.09-1.11-.12-2.13-.01-3.29h5.24s.03,3.1.03,3.1l-.82.52.04,10.03h2.68s.03-10.04.03-10.04l-.8-.49.04-3.13h5.16ZM95.55,22.67c-.02.78-.18,1.63.09,2.03.39.47.65.61.65,1.31l-.05,9.37c0,.43-.29.93-.75.92l-2.8-.05-.08-6.4c-.02-1.84-.21-4.41-.07-4.51s.58-.11.68-.38c.24-.65.16-1.49.03-2.23-1.4-.17-2.7-.13-4.12.02-.2.74-.21,1.71.05,2.34.21.07.76.16.76.43l.06,11.75c.25.47.97,1.28,1.46,1.44,2.01.11,3.92,0,5.86-.4.6-.12,1.06-.93,1.54-1.35l.03-11.81c.4-.12.63-.21.9-.39.04-.76.1-1.45-.16-2.11h-4.07Z"/>
    <path class="st0" d="M83.09,36.47l-1.08-3.43c-.58-.1-1.11-.06-1.61.19l-.05,3.88c.29.16.55.2.96.26l-.06,3.4-5.39.89v-3.6s.93-.39.93-.39l-.02-11.61c-.34-.07-.93-.22-.92-.5l.05-3.34,8.95-.03,1.99,1.98-.02,6.14c0,.63-.94,1.09-1.41,1.54l1.31,4.41,1.08.15-.02,3.35-5.14.74-.08-3.14c.1-.18.62-.54.51-.89ZM83.98,37.2c-.56.05-.9.34-.9.55l-.02,2.21,4.27-.71v-2.14s-1.01-.26-1.01-.26l-1.41-5.04,1.49-1.56v-5.87s-1.75-1.71-1.75-1.71l-4.96-.02c-1.15,0-2.2-.01-3.33.27v2.31c.41.08.67.12.98.3v12.44s-.79.53-.79.53l.05,2.42,4.02-.6c.16-.77.12-1.49.06-2.3l-.83-.51c.09-1.55.11-2.96-.02-4.59.8-.43,1.76-.59,2.6-.34.5,1.66.89,3.13,1.56,4.61Z"/>
    <path class="st0" d="M132.51,35.88l.07-2.58,3.61.26-.1,4.01c-.02.68-1.26,1.67-1.95,1.9l-5.64-.4c-.98-.07-1.65-1.38-2.28-2,.1-4.36-.05-8.38-.23-12.75.47-.68,1.17-1.79,1.98-2.07,2.06-.09,4.05-.23,6.11.07.74.11,1.89,1.32,1.91,2.04l.11,3.81-3.59-.25c-.02-.83.12-1.49-.11-2.27-.92-.17-1.79-.19-2.7,0,.24,3.37.09,6.57.15,9.97.85.32,1.74.32,2.67.27ZM129.59,36.14c-.66-.47-.36-1.52-.36-2.19l-.04-8.79c1.24-.28,2.46-.18,3.64,0,.28.76.17,1.41.2,2.2l2.53.1c.14-2.32.35-3.58-1.64-4.74h-5.49c-.66-.01-1.26.72-1.77,1.16l.08,13.1c.57.45,1.01,1.36,1.68,1.42l5.69.51,1.49-1.42-.07-3.44c-.81-.18-1.5-.2-2.3-.12-.22,1.06.14,2.03-.37,2.4-.39.29-2.93.02-3.25-.21Z"/>
    <path class="st0" d="M109.95,38.55c-1.86-.04-3.49-.07-5.44.09l-.08-3.05c0-.2.51-.42.87-.39v-9.61c-.02-.26-.56-.28-.68-.17-.41.33.34,1.8-.28,1.97-.91.24-1.85.02-2.79.05,0-1.81.1-3.44-.02-5.26h11.22s-.06,5.2-.06,5.2c-.92.11-1.82.19-2.73-.03-.49-.12-.05-1.57-.41-1.86-.16-.13-.6-.05-.6.28v9.3c.38.02.85.11.99.3l.02,3.18ZM109.34,35.71c-.52,0-.74-.15-.84-.27-.12-.15-.02-.54-.03-.77l-.11-9.69c.54-.15,1.44-.31,1.82.05l.24,1.88c.56.1,1.06.1,1.66.02v-4.29s-9.88,0-9.88,0l.04,4.26c.43.11,1.24.19,1.48-.12l.31-1.84c.63-.17,1.28-.18,1.86.04-.09,3.58-.1,6.84,0,10.42-.95.27-1.18,1.84-.65,2.5l4.13.11c.08-.87.13-1.51-.05-2.32Z"/>
    <path class="st8" d="M137.1,35.62l-.1-2.9-5.37-.28c.01.79.27,1.57.02,2.42-.08.27-1.07.17-1.07-.16l-.04-7.72c0-.39.14-.61.42-.64.93-.11.44,1.05.68,2.49l5.26.19.21-2.53h.38s.03,9.01.03,9.01c-.1.15-.3.16-.42.12Z"/>
    <path class="st0" d="M122.85,38.72l-6.83-.2-1.72-1.82v-12.75s1.71-1.77,1.71-1.77h6.52s1.98,2,1.98,2v12.78s-1.66,1.76-1.66,1.76ZM122.49,38.12c.51-.31,1.36-.98,1.57-1.54l-.12-12.2c-.59-.7-1.08-1.26-1.78-1.77l-5.72.12c-.55.01-1.22.93-1.52,1.4l.02,12.43c.44.5,1.04,1.38,1.73,1.4l5.83.16Z"/>
    <path class="st8" d="M87.44,35.49l-1.05-3.17,1.38-1.36-.02-4.28c0-.17.34-.13.42-.11.13.03.42.1.42.43l-.04,8.31c0,.31-1.01.45-1.1.18Z"/>
    <path class="st8" d="M94.95,34.93l-1.01.05-.07-8.44c.26-.27.88-.21,1.08-.12v8.5Z"/>
    <path class="st0" d="M95.49,21.14c-.99.18-1.84.14-2.91.02l1.37-3.44h3.58s-2.04,3.42-2.04,3.42ZM95.15,20.58c.65-.74.93-1.41,1.34-2.26-.77-.26-1.5-.2-2.25-.09-.25.81-.65,1.39-.72,2.33.35.12,1.34.33,1.62.01Z"/>
    <path class="st0" d="M157.95,21.17h-2.77s1.42-3.69,1.42-3.69l3.55-.04-2.2,3.72ZM157.72,20.52l1.47-2.6-2.22-.03c-.41.85-.77,1.64-1,2.68.38.17,1.51.38,1.75-.05Z"/>
    <path class="st8" d="M69,27.08l-.35,2.66c-.5-.84-.56-1.63-.54-2.57,0-.31.92-.31.89-.09Z"/>
    <path class="st8" d="M81.57,36.25c-.36-.64-.25-1.16-.13-1.84.29.49.73,1.06.13,1.84Z"/>
    <path class="st8" d="M143.44,36.22c-.15.12-.52.07-.6-.04-.12-.19-.12-.78.18-.77s.57.65.42.81Z"/>
    <path class="st8" d="M157.39,38.14c.15.45-.37.47-.51.36-.12-.09-.31-.21-.38-.42.26-.15.81-.12.9.05Z"/>
    <path class="st1" d="M149.2,40.95l-4.14-.71c-.17-.59-.24-1.55-.19-2.14.1-.18.7-.39.56-.73l-2.12-5.24c-1.85,1.65-1.89,2.6-1.67,4.9.01.24.47.46.63.6.15.73.14,1.51.02,2.29l-3.93-.63c-.15-.59-.26-1.54,0-2.13l.7-.34c.14-.07-.02-.5-.02-.76l-.05-9.8c0-1.27-1.35-1.14-.74-3.57l4.06-.02.05,2.19c0,.34-.51.55-.84.7.17,1.93.03,3.88-.02,5.88l4.27-5.93c-.32-.25-.58-.24-1-.28l.05-2.51,4.09.16c.66,2.6-.42,2.41-1.29,3.64l-2.73,3.84c1.28,2.5,2.18,5.03,3.27,7.57.2.24.67.38.97.53.17.83.17,1.53.07,2.47Z"/>
    <path class="st1" d="M69.83,22.93c1.46-.19,2.82-.27,4.19.06l.1,2.28-.91.52-2.9,16.3c-1.04.47-2.13.7-3.37.73l-3.08-16.8c-.15-.26-.7-.39-.93-.51l-.04-2.65,4.29-.03-.02,2.45c0,.19-.51.39-.8.54l2.24,12.52,2.06-12.54-.82-.52c-.13-.76-.1-1.37,0-2.36Z"/>
    <path class="st1" d="M158.61,36.75l-3.39-.46c-.25.87-.39,1.72-.41,2.69.13.24.64.48.68.69l-.09,2.45-3.79-.68c-.21-.8-.22-1.59-.09-2.42.09-.19.46-.36.77-.47l2.13-12.54c.08-.45-.67-.6-.75-.81-.22-.57-.15-1.64-.08-2.31l6.69-.03v2.62s-.93.38-.93.38l2.21,13.31c.14.82.26,1.45,1.17,1.71l-.12,2.85c-1.29-.26-2.71-.34-3.94-.97-.32-.16-.55-2.47.39-2.93.18-.97-.22-2-.45-3.09ZM158.27,34.1l-1.3-9.01-1.3,8.74,2.6.26Z"/>
    <path class="st1" d="M95.55,22.67h4.07c.26.66.2,1.36.16,2.11-.26.18-.49.26-.9.39l-.03,11.81c-.48.41-.94,1.22-1.54,1.35-1.94.39-3.85.51-5.86.4-.49-.16-1.21-.97-1.46-1.44l-.06-11.75c0-.27-.55-.36-.76-.43-.26-.63-.25-1.6-.05-2.34,1.42-.15,2.72-.19,4.12-.02.13.74.21,1.57-.03,2.23-.1.27-.54.28-.68.38s.05,2.67.07,4.51l.08,6.4,2.8.05c.45,0,.74-.49.75-.92l.05-9.37c0-.7-.26-.84-.65-1.31-.27-.4-.11-1.25-.09-2.03Z"/>
    <path class="st1" d="M83.98,37.2c-.68-1.48-1.07-2.95-1.56-4.61-.83-.25-1.8-.09-2.6.34.13,1.63.11,3.04.02,4.59l.83.51c.06.81.1,1.54-.06,2.3l-4.02.6-.05-2.42.77-.53v-12.44c-.3-.18-.56-.22-.98-.3v-2.31c1.14-.29,2.19-.28,3.34-.27l4.96.02,1.75,1.71v5.87s-1.48,1.56-1.48,1.56l1.41,5.04,1.01.26v2.14s-4.27.71-4.27.71l.02-2.21c0-.21.35-.5.9-.55ZM83.62,29.22c.31-.98.09-2.06.12-2.94.02-.56-.42-.99-.93-.98l-2.95.04c.22,2.33-.31,5.03.46,4.94l.71-.08c.78-.09,2.27.05,2.6-.98Z"/>
    <path class="st1" d="M129.59,36.14c.32.23,2.86.5,3.25.21.52-.38.15-1.35.37-2.4.8-.08,1.49-.07,2.3.12l.07,3.44-1.49,1.42-5.69-.51c-.66-.06-1.1-.97-1.68-1.42l-.08-13.1c.5-.45,1.1-1.18,1.77-1.18h5.49c1.98,1.17,1.78,2.43,1.64,4.75l-2.53-.1c-.03-.8.08-1.45-.2-2.2-1.19-.17-2.4-.27-3.64,0l.04,8.79c0,.66-.3,1.72.36,2.19Z"/>
    <path class="st1" d="M109.34,35.71c.17.81.13,1.46.05,2.32l-4.13-.11c-.53-.66-.31-2.24.65-2.5-.1-3.57-.09-6.84,0-10.42-.58-.22-1.23-.2-1.86-.04l-.31,1.84c-.24.3-1.06.23-1.48.12l-.04-4.26h9.87s0,4.28,0,4.28c-.6.07-1.1.07-1.66-.02l-.24-1.88c-.37-.37-1.27-.2-1.82-.05l.11,9.69c0,.23-.1.62.03.77.1.12.31.27.84.27Z"/>
    <path class="st1" d="M122.49,38.12l-5.83-.16c-.69-.02-1.28-.91-1.73-1.4l-.02-12.43c.3-.47.97-1.39,1.52-1.4l5.72-.12c.7.51,1.19,1.07,1.78,1.77l.12,12.2c-.21.56-1.05,1.23-1.57,1.54ZM121.47,35.71l-.05-9.68c0-.4-.2-.75-.4-.93-.34-.29-2.42-.41-3.63.11l-.02,9.65c0,1.19,2,1.18,4.1.85Z"/>
    <path class="st1" d="M95.15,20.58c-.28.32-1.28.11-1.62-.01.07-.94.47-1.52.72-2.33.74-.11,1.48-.17,2.25.09-.41.85-.7,1.52-1.34,2.26Z"/>
    <path class="st1" d="M157.72,20.52c-.24.43-1.37.22-1.75.05.23-1.04.59-1.83,1-2.68l2.22.03-1.47,2.6Z"/>
    <path class="st0" d="M158.27,34.1l-2.6-.26,1.3-8.74,1.3,9.01ZM157.7,33.42l-.74-4.75-.73,4.53c.48.29.86.35,1.47.22Z"/>
    <path class="st0" d="M83.62,29.22c-.32,1.03-1.81.89-2.6.98l-.71.08c-.77.09-.24-2.61-.46-4.94l2.95-.04c.51,0,.95.42.93.98-.03.88.19,1.96-.12,2.94ZM83.02,29.29c.57-1.06.31-2.47.03-3.44-.96-.18-1.72-.11-2.68-.03l.04,3.78c.76.02,2.05.28,2.61-.31Z"/>
    <path class="st0" d="M121.47,35.71c-2.1.33-4.1.34-4.1-.85l.02-9.65c1.21-.52,3.3-.4,3.63-.11.21.18.4.53.4.93l.05,9.68ZM120.96,35.27l-.08-9.66c-1.01-.24-2.03-.37-3.01-.07v9.74c1.09.2,2,.16,3.09,0Z"/>
    <path class="st7" d="M157.7,33.42c-.61.13-1,.07-1.47-.22l.73-4.53.74,4.75Z"/>
    <path class="st7" d="M83.02,29.29c-.56.59-1.85.33-2.61.31l-.04-3.78c.96-.08,1.72-.15,2.68.03.28.97.54,2.38-.03,3.44ZM82.1,26.64c-.21-.11-.68-.05-.84.13-.21.23-.21,1.73.08,2.02.18.18.58.15.75,0,.46-.39.4-1.94,0-2.15Z"/>
    <path class="st7" d="M120.96,35.27c-1.08.16-2,.2-3.09,0v-9.74c.99-.29,2.01-.17,3.02.07l.08,9.66ZM120,26.28h-1.32s.05,8.26.05,8.26h1.32s-.05-8.26-.05-8.26Z"/>
  </g>
  <g>
    <rect class="st2" x="87.73" y="44.56" width="50" height="12.11" rx="6.05" ry="6.05"/>
    <text class="st5" transform="translate(92.79 52.62)"><tspan x="0" y="0">BRATISLAVA</tspan></text>
  </g>
  <g>
    <text class="st4" transform="translate(77.58 12.1)"><tspan x="0" y="0" xml:space="preserve">ZÁKLADNÁ  ŠKOLA</tspan></text>
    <polygon class="st3" points="72.53 12.3 72.33 10.43 70.48 10.04 72.2 9.27 72 7.39 73.27 8.79 74.99 8.02 74.05 9.66 75.32 11.05 73.47 10.67 72.53 12.3"/>
    <polygon class="st3" points="153.18 12.32 152.07 10.79 150.27 11.37 151.38 9.85 150.27 8.32 152.07 8.9 153.18 7.38 153.18 9.27 154.97 9.85 153.18 10.43 153.18 12.32"/>
  </g>
</svg>