<?xml version="1.0" encoding="UTF-8"?>
<svg id="Layer_1" xmlns="http://www.w3.org/2000/svg" version="1.1" viewBox="0 0 205.25 63.36">
  <!-- Generator: Adobe Illustrator 30.5.1, SVG Export Plug-In . SVG Version: 2.1.4 Build 3)  -->
  <defs>
    <style>
      .st0 {
        fill: #f3982f;
      }

      .st1 {
        fill: #d05f0a;
      }

      .st2 {
        fill: none;
        stroke: #14727c;
        stroke-miterlimit: 10;
      }

      .st3 {
        font-size: 9.11px;
      }

      .st3, .st4, .st5 {
        fill: #14727c;
      }

      .st3, .st5 {
        font-family: NazareExuberant-Bold, 'Nazare Exuberant';
        font-weight: 700;
      }

      .st5 {
        font-size: 7.2px;
      }

      .st6 {
        fill: #fdfdfd;
      }
    </style>
  </defs>
  <g>
    <path class="st4" d="M40.19,31.88c-.38.37-.73.86-1.13,1.16-.73.56-1.59.83-2.26,1.76,2.31-.16,3.71,1.32,3.84,3.2s-1.12,3.62-3.18,3.72c-1.37.06-2.41-.85-2.93-1.85-.67-1.3-.47-2.54.44-3.9l-2.46,1.28c-.41.22-.99.43-1.5.5-1.29.19-2.72.74-4.02.4-.91-.24-1.35-.24-2.24.04-1.18.36-2.53-.25-3.74-.38l-1.59-.62-2.5-1.2c.49.97.75,1.68.68,2.7-.11,1.74-1.49,2.93-3.13,3s-3.15-1.21-3.26-3c-.13-2.26,1.37-4.04,3.84-3.91-.69-.79-1.33-1.16-2.18-1.68-.34-.21-.72-.78-1.07-1.11-2.61-2.56-4.83-5.24-6.61-8.5C2.56,18.63.87,13.52,0,7.84l6.05,5.89,5.76,4.63c-.37-2.31-1.64-2.82-2.35-3.44-.4-.35.03-1.09-.06-1.43-1.06-2.43-2.47-4.55-4.02-6.93,1.92-.31,3.48.86,4.69,2.59l.78-2.07c.45-1.18,1.73-1.67,2.87-1.4,1.21.29,1.98,1.5,1.71,2.85l-.62,3.1c-.22,1.08.53,2.08,1.85,1.9-.15-.84-.23-1.66.26-2.26.55-.68,1.4-.8,2.18-.56.69.2,1.07.85,1.57,1.55.35.48,1.19-.08,1.38-.44.3-.57.31-1.32-.27-1.8l-2.43-1.99c-.84-.69-1.1-1.86-.63-2.92.35-.77,1.38-1.33,2.45-1.22,1.19.13,1.7.97,2.69,1.7-.15-2.24.63-3.8,1.97-5.07,1.48,1.5,1.97,3.02,2.01,5.05.98-1.05,1.55-1.61,2.48-1.72,1.09-.13,2.15.18,2.65,1.33.45,1.06-.18,2.29-1.03,3.04-1.16,1.02-2.79,1.56-2.36,3.25.11.45,1.15,1.22,1.44.71.63-1.09,1.49-1.9,2.57-1.67,1.24.26,1.74,1.42,1.31,2.79.86.27,1.24-.11,1.54-.46.37-.44.53-1.08.38-1.74l-.59-2.59c-.28-1.21.17-2.22,1.17-2.82.92-.55,2.22-.27,3.01.65.61.71.67,1.5,1.03,2.61,1.28-1.6,2.64-2.69,4.76-2.71-1.39,2.33-2.88,4.47-3.98,6.98-.13.29.21.98.04,1.23-.26.38-.6.67-1.19.83-.49.98-1.35,1.76-1.33,3.2,4.68-3.14,8.52-6.64,12.24-10.79-1.48,9.43-4.87,17.53-11.81,24.18ZM5.13,19.06c1.42,2.48,3.27,4.67,5.75,6.34,1.23,1.96,2.55,3.67,4.04,5.41,2.11,2.44,4.55,4.45,7.41,5.94,4.52,2.34,8.46-.21,12.13-3.48,2.58-2.42,4.64-5.1,6.57-8.11,2.87-2.06,5.06-4.7,6.67-7.74l.03-.18.22-.36c.87-1.39,1.74-2.86,1.77-4.91-2.24,2.07-4.22,3.93-6.6,5.6-2.03,1.43-3.63,3.11-5.24,5l.11-2.03c-3.97-1.44-8.07-1.89-12.32-1.83-4.15.06-8.13.42-12.11,1.91.2,1.43,1.05,2.38.07,2.21-1.36-3.17-3.6-2.64-3.95-4.62-2.7-1.94-5.22-3.87-7.56-6.47.36,2.9,1.75,5.11,3.01,7.31ZM14.47,37.01c0-.58-.47-1.05-1.05-1.05s-1.05.47-1.05,1.05.47,1.05,1.05,1.05,1.05-.47,1.05-1.05ZM37.44,37.07c0-.58-.47-1.05-1.05-1.05s-1.05.47-1.05,1.05.47,1.05,1.05,1.05,1.05-.47,1.05-1.05Z"/>
    <path class="st1" d="M50.67,36.65c-.27.78-.74,1.81-.49,2.65.77,2.56.45,4.99-.8,7.34-2.55,4.79-7.43,8.02-12.91,8.19-2.02.06-3.55-1.09-4.58-2.65-.27-1.12-.98-1.88-.71-3.35l3.97-1.86c-1.51-1.44-3.45-2.29-4.45-4.12l-1.32-2.41c-.12-.21-.1-.56-.21-.68-.14-.15-1.91.45-3.19,1.1l-3.12-1.24-2.3,4.37c-.69,1.32-1.49,2.45-2.65,3.56.7.95,2.71.96,2.55,1.82l-.42,2.65c-1.16,2.13-3.14,2.98-5.7,2.73-5.19-.52-9.83-3.92-12.11-8.62-1.13-2.32-1.17-4.61-.51-7.02.17-.63-.32-1.56-.46-2.08-.84-2.97-1.53-5.93-1.03-9.16.89,1.88,1.27,3.81,3.17,5.12-1.86-4.8-2.97-9.81-2.22-15.18,1.45,4.3,3.58,8.12,6.58,11.48,1.03,1.15,1.11,2.55.47,3.95-1.85,4.42-3.96,9.73-.28,12.93,1.63,1.42,3.71,2.4,5.93,2.47,4.36.15,6.49-5.64,8.43-9.44,1.23-.21,2.32.89,3.45.89,1.19,0,2.37-1.09,3.82-.84,1.02,4.19,5.67,7.96,9.7,8.37,3.29.33,6.14-1.64,6.78-4.88.35-1.8.2-3.61-.51-5.33l-1.93-4.62c-.45-1.08-.44-2.22.38-3.12,3.14-3.47,5.43-7.44,6.87-12.02.56,4.8-.07,9.58-2.09,13.94-.27.22-.14.59.26.61,1.24-1.19,1.85-2.66,2.61-4.37.43,3.09,0,5.92-.99,8.79Z"/>
    <path class="st4" d="M50.67,36.65c.92,2.83,1.68,5.88.62,8.83-2.15,5.96-7.8,10.14-14.01,10.62-3.03.24-5.06-.94-6.88-3.5-.8,4.2-2.27,7.44-4.49,10.76-2.19-3.3-3.66-6.61-4.5-10.78-1.56,2.5-3.65,3.66-6.5,3.54-4.85-.21-9.02-2.69-12.05-6.44s-3.66-8.44-1.6-12.63c.15.52.63,1.45.46,2.08-.66,2.4-.62,4.69.51,7.02,2.28,4.69,6.92,8.1,12.11,8.62,2.55.26,4.54-.6,5.7-2.73,1.71-3.14,2.36-6.93,5.75-9.79,3.92,2.56,4.2,7.07,6.1,9.94,1.03,1.56,2.56,2.71,4.58,2.65,5.48-.17,10.36-3.4,12.91-8.19,1.25-2.35,1.57-4.78.8-7.34-.25-.84.22-1.87.49-2.65ZM25.86,61.05c2.26-3.45,3.18-6.92,3.61-10.6-.78-2.42-1.74-4.55-3.59-6.39-1.64,1.83-2.84,3.94-3.48,6.37.33,3.8,1.52,7.41,3.46,10.62Z"/>
    <path class="st1" d="M12.89,33.09c-2.37,1.16-3.78,3.38-3.43,5.96.3,2.25,2.17,4.36,4.73,4.44,3.44.11,5.66-3.18,5.23-6.32l1.59.62c.04,2.14-.77,4.18-2.28,5.59s-3.71,2.09-5.92,1.52c-2.83-.73-4.71-3.29-4.96-6.07s1.34-5.53,3.98-6.87c.34.34.73.9,1.07,1.11Z"/>
    <path class="st1" d="M40.19,31.88c2.65,1.59,4.23,4.36,3.69,7.53-.46,2.67-2.42,5.13-5.41,5.62-2.15.35-4.22-.4-5.64-1.86s-2.09-3.41-1.82-5.42c.51-.07,1.09-.29,1.5-.5-.51,3.05,1.48,6.1,4.73,6.26,2.54.13,4.85-2.53,5.13-4.19.04-.18.05-.31.06-.41.19-2.47-1.17-4.62-3.38-5.86.4-.3.75-.79,1.13-1.16Z"/>
    <path class="st0" d="M47.71,17.42c-1.61,3.04-3.8,5.68-6.67,7.74-1.94,3.01-4,5.69-6.57,8.11-3.67,3.26-7.61,5.82-12.13,3.48-2.86-1.48-5.3-3.5-7.41-5.94-1.49-1.74-2.81-3.46-4.04-5.41-2.48-1.67-4.33-3.86-5.75-6.34,1.5,1.23,2.65,3.33,4.47,4.43,1.16.7,2.47,1.08,3.23,2.5,3.81-4.11,9.74-5.22,15.24-4.93,4.13.22,7.77,2.21,10.65,5.3,1.09-1.72,2.15-2.41,3.59-3.13,1.19-.59,1.95-1.9,2.85-2.83,1.67-1.7,1.95-3.08,2.54-2.99Z"/>
    <path class="st1" d="M47.96,16.88c-.11.09-.19.22-.22.36l-.03.18c-.59-.1-.88,1.29-2.54,2.99-.91.93-1.66,2.24-2.85,2.83-1.44.71-2.5,1.4-3.59,3.13-2.89-3.09-6.52-5.08-10.65-5.3-5.49-.29-11.43.81-15.24,4.93-.76-1.43-2.07-1.8-3.23-2.5-1.82-1.11-2.97-3.2-4.47-4.43-1.26-2.2-2.64-4.4-3.01-7.31,2.34,2.6,4.86,4.53,7.56,6.47.36,1.97,2.59,1.45,3.95,4.62.98.17.13-.78-.07-2.21,3.98-1.49,7.97-1.86,12.11-1.91,4.26-.06,8.35.39,12.32,1.83l-.11,2.03c1.61-1.88,3.2-3.57,5.24-5,2.37-1.67,4.36-3.53,6.6-5.6-.03,2.05-.9,3.52-1.77,4.91Z"/>
    <circle class="st6" cx="36.39" cy="37.07" r="1.05"/>
    <circle class="st6" cx="13.43" cy="37.01" r="1.05"/>
    <path class="st0" d="M47.74,17.24c.03-.14.11-.26.22-.36l-.22.36Z"/>
    <path class="st0" d="M31.89,52.19c-1.9-2.87-2.18-7.38-6.1-9.94-3.39,2.86-4.04,6.65-5.75,9.79l-.07-2.54c.08-.97-1.36-.98-2.06-1.92,1.16-1.11,1.96-2.24,2.65-3.56l2.3-4.37,3.12,1.24c1.28-.65,3.04-1.25,3.19-1.1.11.12.18.34.76,1.68l1.21,1.75c1.31,1.62,2.49,2.34,4,3.78l-1.46.81c-1.49.83-2.24,2.54-1.85,4.19.02.07.03.14.05.21Z"/>
    <path class="st0" d="M25.86,61.05c-1.94-3.22-3.13-6.82-3.46-10.62.64-2.43,1.84-4.54,3.48-6.37,1.85,1.84,2.81,3.97,3.59,6.39-.43,3.68-1.35,7.15-3.61,10.6Z"/>
  </g>
  <g>
    <path class="st4" d="M85.18,39.8l-.03-13.23c0-.52-1.89-.67-2.05-.18l-3.95,22.46c-2.68.44-5.13.98-7.86,1.63l-4.27-23.73-1.76-.31c.23-2.6.11-5.02.11-7.82l32.29-.04,3.17,3.02c.48-1.04.13-2.01.21-3.02l5.48-.08,2.29-6.06h8.07s-3.68,6.13-3.68,6.13h23.29c.04.93-.2,1.55.15,2.73l2.55-2.7h10.01s2.94,3.04,2.94,3.04l3.25-3.06h9.6s2.75,2.77,2.75,2.77c.36-1.21.1-1.88.13-2.75h18.93s0,7.76,0,7.76c-.71-.11-1.81-.27-2.12.16l-3.42,4.69,3.67,8.31c.31.69,1.92.93,2.5.58l2.39-13.13c.07-.4-.64-.9-.9-1.11v-7.31c.86.06,1.99.25,2.57-.14l2.68-6.23,7.93-.11-3.89,6.43,3.86.06-.06,7.96c-.59.55-.89,1.1-.73,2.06l2.5,14.51,1.42.59.06,8.16c-12.28-3.28-24.57-5.3-37.15-6.95l-.15-2.77-2.87,2.46-9.65-.66-3.11-3.17-3.02,2.84-9.92-.36-3.04-3.15-.08-11.71-4.92-.1.03,7.58c0,.29.86.54,1.31.44l.08,7.16-10.04.14v-6.99s1.22-.54,1.22-.54l.04-7.79h-5.08s-.35-2.63-.35-2.63l-.25.18.02,14.78-3.34,3.36-9.29.58c-1.04-.95-1.8-1.93-3.07-2.68l-.04,3.04c-6.38.85-12.51,1.77-18.74,2.99l-.04-7.46,1.35-.62ZM196.84,18.38l3-5.07-4.83.05-1.94,5.01h3.77ZM111.78,18.35l2.78-4.64-4.88-.02-1.87,4.68c1.46.16,2.62.22,3.96-.02ZM66.78,25.18c.53.08,1.12.2,1.28.33.19.16.11.58.17.93l4.13,22.57,5.33-1.28c.91-.22.67-1.17.78-1.83l3.62-20.76,1.28-.55-.08-4.73h-7.29s0,4.9,0,4.9c.57.11.92.23,1.22.47l-2.02,12.16-2.3-12.07,1.17-.7-.21-4.74c-2.64.26-4.73.21-7.17.08l.12,5.22ZM94.9,39.22c.15.47-.57.97-.7,1.21l.1,4.27,7-1,.02-4.56-1.47-.2-1.78-6c.63-.62,1.91-1.24,1.91-2.1l.03-8.36-2.7-2.69-12.19.04-.07,4.54c0,.38.8.57,1.26.68l.03,15.81-1.28.53.02,4.9,7.34-1.21.08-4.64c-.56-.09-.92-.14-1.31-.35l.06-5.28c.68-.33,1.41-.4,2.19-.25l1.46,4.66ZM118.2,19.77h-7.03s-.06,4.26-.06,4.26l1.09.67-.04,13.66h-3.65s-.05-13.65-.05-13.65l1.12-.71-.05-4.23h-7.14c-.15,1.59-.1,2.97.02,4.48l1.2.5.09,16.12,2.6,2.47c5.19-1.01,8.42,1.13,10.74-3.56l.05-15.3c.52-.17.86-.28,1.24-.53l-.11-4.19ZM131.48,42.05l-.03-4.32c-.19-.26-.83-.39-1.34-.41v-12.66c0-.45.61-.56.82-.39.5.4-.1,2.37.56,2.53,1.25.3,2.47.18,3.72.04l.08-7.1h-15.29c.16,2.5.02,4.71.03,7.18,1.28-.03,2.56.26,3.8-.06.85-.22-.17-2.23.38-2.68.17-.14.91-.12.91.23l.02,13.08c-.5-.04-1.2.26-1.19.53l.11,4.15c2.65-.23,4.87-.18,7.4-.13ZM149.05,42.28l2.28-2.39-.02-17.4-2.69-2.72h-8.88s-2.34,2.4-2.34,2.4v17.37s2.35,2.47,2.35,2.47l9.3.27ZM162.19,38.41c-1.27.07-2.47.07-3.63-.36-.08-4.63.13-8.98-.2-13.57,1.25-.26,2.43-.22,3.68,0,.31,1.07.12,1.97.15,3.1l4.89.34-.15-5.19c-.03-.97-1.59-2.63-2.6-2.77-2.8-.4-5.5-.21-8.31-.09-1.11.38-2.06,1.89-2.7,2.82.23,5.94.44,11.42.31,17.36.86.85,1.77,2.63,3.11,2.73l7.68.54c.93-.31,2.63-1.66,2.65-2.58l.13-5.46-4.91-.36-.1,3.51ZM185.64,46.25l-.09-4.83c0-.33-1.05-.45-1.43-.52l-4.3-10.12,4.14-5.55,1.58-.44-.15-4.97-7.05.06c-.59,1.88.1,3.91,0,5.55-.69,1.6-1.99,2.92-3,4.34l-.06-4.66c.22-.28,1-.58,1-1.07l-.07-4.25-7.06.07-.07,4.36,1.2.52.08,13.98-1.11.95.19,4.12,7.03.86-.07-4.51-1.01-.49c-.16-.08-.77-3.82,1.32-5l2.05,5.18-.57,1.15.09,4.08,7.34,1.19ZM196.71,40.29c1.48.84.7,2.48.31,3.45-.59,1.45-.06,3.15-.18,4.67l7.2,1.83-.15-5.54c-.82-.49-1.28-1.06-1.46-2.14l-2.76-16.88,1.1-.71-.1-5.16-10.45.06-.04,4.78c.43.22.77.35,1.1.68l-2.84,16.09c-.33.06-1.09.29-1.09.56v4.57s6.81,1.37,6.81,1.37l.02-4.95c-.14-.27-.63-.54-.91-.7l.52-2.44c.78.16,2.14.03,2.92.47ZM111.05,37.13v-11.58c-.27-.12-1.11-.2-1.46.16l.09,11.49,1.37-.07ZM168.45,38.06c.17.07.44.05.57-.16l-.04-12.27h-.52s-.28,3.44-.28,3.44l-7.17-.26c-.33-1.97.34-3.55-.93-3.4-.39.05-.57.34-.57.87l.06,10.52c0,.45,1.35.58,1.46.22.34-1.15-.01-2.21-.03-3.29l7.32.38.14,3.95ZM100.82,37.89c.12.37,1.5.19,1.5-.24l.06-11.32c0-.45-.39-.54-.57-.59-.11-.03-.57-.09-.57.14l.03,5.83-1.88,1.86,1.43,4.31ZM75.71,26.44c.04-.3-1.21-.3-1.22.12-.03,1.28.05,2.35.74,3.5l.48-3.62ZM92.82,38.92c.82-1.06.22-1.84-.17-2.51-.17.92-.31,1.63.17,2.51ZM177.08,38.89c.2-.22-.15-1.09-.57-1.11s-.4.79-.24,1.05c.1.16.61.23.81.06ZM196.07,41.49c-.12-.24-.87-.27-1.22-.07.1.28.36.45.52.57.2.14.91.12.7-.49Z"/>
    <path class="st0" d="M185.64,46.25l-7.34-1.19-.09-4.08.57-1.15-2.05-5.18c-2.1,1.18-1.48,4.92-1.32,5l1.01.49.07,4.51-7.03-.86-.19-4.12,1.11-.95-.08-13.98-1.2-.52.07-4.36,7.06-.07.07,4.25c0,.49-.77.78-1,1.07l.06,4.66c1.02-1.42,2.31-2.74,3-4.34.09-1.64-.59-3.67,0-5.55l7.05-.06.15,4.97-1.58.44-4.14,5.55,4.3,10.12c.38.07,1.42.19,1.43.52l.09,4.83ZM184.92,45.32c.14-1.28.14-2.24-.09-3.37-.41-.21-1.05-.4-1.32-.73-1.5-3.46-2.72-6.91-4.46-10.31l3.71-5.22c1.19-1.68,2.66-1.42,1.76-4.96l-5.57-.22-.07,3.41c.57.05.92.03,1.36.37l-5.81,8.08c.07-2.73.26-5.37.02-8.01.45-.21,1.15-.49,1.14-.96l-.07-2.99-5.53.02c-.83,3.31,1,3.13,1.01,4.86l.07,13.34c0,.36.22.94.03,1.03l-.95.46c-.36.81-.21,2.09,0,2.9l5.35.85c.16-1.05.17-2.12-.03-3.11-.22-.18-.84-.49-.86-.81-.3-3.14-.24-4.42,2.28-6.68l2.89,7.14c.19.47-.63.75-.76,1-.07.79.02,2.11.25,2.91l5.64.97Z"/>
    <path class="st0" d="M66.78,25.18l-.12-5.22c2.44.13,4.54.18,7.17-.08l.21,4.74-1.17.7,2.3,12.07,2.02-12.16c-.3-.24-.66-.36-1.22-.47v-4.9s7.3,0,7.3,0l.08,4.73-1.28.55-3.62,20.76c-.11.66.13,1.61-.78,1.83l-5.33,1.28-4.13-22.57c-.06-.35.02-.77-.17-.93-.16-.13-.75-.25-1.28-.33ZM76.84,20.78c-.14,1.35-.18,2.18,0,3.21l1.12.7-2.8,17.08-3.04-17.04c.4-.2,1.09-.47,1.09-.73l.03-3.34-5.85.03.05,3.61c.31.16,1.05.34,1.26.69l4.19,22.88c1.69-.04,3.18-.37,4.59-1l3.95-22.19,1.24-.71-.14-3.11c-1.85-.45-3.71-.33-5.7-.08Z"/>
    <path class="st0" d="M196.71,40.29c-.78-.44-2.14-.31-2.92-.47l-.52,2.44c.28.16.77.43.91.7l-.02,4.95-6.81-1.37v-4.57c0-.27.76-.5,1.09-.56l2.84-16.09c-.33-.32-.66-.46-1.1-.68l.04-4.78,10.45-.06.1,5.16-1.1.71,2.76,16.88c.18,1.08.64,1.65,1.46,2.14l.15,5.54-7.2-1.83c.12-1.52-.41-3.22.18-4.67.39-.97,1.18-2.61-.31-3.45ZM197.74,39.61c.32,1.48.87,2.89.61,4.21-1.28.62-.97,3.76-.53,3.98,1.68.86,3.61.97,5.37,1.32l.16-3.88c-1.23-.36-1.4-1.22-1.59-2.33l-3-18.12,1.25-.51v-3.57s-9.09.04-9.09.04c-.09.91-.19,2.37.11,3.14.11.29,1.12.49,1.02,1.1l-2.9,17.07c-.43.14-.93.38-1.05.64-.18,1.13-.16,2.2.12,3.3l5.16.92.12-3.34c-.06-.28-.75-.62-.93-.94.02-1.32.21-2.47.55-3.66l4.62.63Z"/>
    <path class="st0" d="M118.2,19.77l.11,4.19c-.38.24-.72.36-1.24.53l-.05,15.3c-2.32,4.68-5.55,2.55-10.74,3.56l-2.6-2.47-.09-16.12-1.2-.5c-.12-1.51-.16-2.9-.02-4.48h7.14s.05,4.23.05,4.23l-1.12.71.05,13.66h3.65s.04-13.67.04-13.67l-1.09-.67.06-4.26h7.03ZM111.86,20.43c-.03,1.07-.24,2.22.12,2.77.53.64.89.82.88,1.78l-.06,12.75c0,.59-.4,1.26-1.02,1.25l-3.82-.06-.11-8.71c-.03-2.51-.29-6-.1-6.14s.79-.15.93-.51c.33-.89.22-2.03.04-3.03-1.9-.24-3.68-.18-5.61.02-.27,1.01-.28,2.33.07,3.19.28.1,1.03.22,1.03.59l.08,16c.34.64,1.31,1.75,1.98,1.96,2.73.15,5.34-.01,7.98-.55.82-.17,1.44-1.27,2.1-1.83l.04-16.08c.55-.17.86-.28,1.22-.53.05-1.03.14-1.97-.22-2.87h-5.55Z"/>
    <path class="st0" d="M94.9,39.22l-1.46-4.66c-.78-.14-1.51-.08-2.19.25l-.06,5.28c.39.21.75.27,1.31.35l-.08,4.64-7.34,1.21-.02-4.9,1.28-.53-.03-15.81c-.46-.1-1.26-.29-1.26-.68l.07-4.54,12.19-.04,2.7,2.69-.03,8.36c0,.85-1.28,1.48-1.91,2.1l1.78,6,1.47.2-.02,4.56-7,1-.1-4.27c.13-.24.85-.74.7-1.21ZM96.11,40.21c-.76.07-1.23.46-1.23.75l-.03,3.01,5.81-.96v-2.91s-1.37-.36-1.37-.36l-1.92-6.87,2.02-2.12v-7.99s-2.38-2.33-2.38-2.33l-6.76-.03c-1.57,0-2.99-.02-4.54.37v3.14c.56.11.91.16,1.34.4l-.02,16.94-1.05.73.06,3.3,5.47-.82c.22-1.04.17-2.03.08-3.13l-1.13-.7c.12-2.11.15-4.03-.03-6.25,1.08-.59,2.4-.81,3.54-.47.68,2.27,1.21,4.27,2.13,6.28Z"/>
    <path class="st0" d="M162.19,38.41l.1-3.51,4.91.36-.13,5.46c-.02.92-1.72,2.27-2.65,2.58l-7.68-.54c-1.33-.09-2.24-1.88-3.11-2.73.13-5.94-.07-11.42-.31-17.36.64-.93,1.6-2.44,2.7-2.82,2.81-.12,5.52-.31,8.31.09,1,.14,2.57,1.8,2.6,2.77l.15,5.19-4.89-.34c-.03-1.13.16-2.03-.15-3.1-1.25-.23-2.44-.26-3.68,0,.33,4.59.12,8.94.2,13.57,1.16.43,2.36.43,3.63.36ZM158.22,38.77c-.9-.64-.49-2.07-.5-2.98l-.06-11.97c1.69-.38,3.34-.25,4.96-.01.38,1.03.23,1.91.28,3l3.45.13c.19-3.16.47-4.87-2.23-6.45l-7.48-.02c-.91,0-1.72.99-2.41,1.6l.1,17.84c.78.61,1.38,1.86,2.28,1.94l7.74.7,2.03-1.93-.1-4.68c-1.11-.25-2.05-.27-3.13-.16-.3,1.44.19,2.76-.51,3.27-.53.39-3.99.03-4.43-.29Z"/>
    <path class="st0" d="M131.48,42.05c-2.53-.05-4.75-.1-7.4.13l-.11-4.15c0-.27.7-.57,1.19-.53l-.02-13.08c0-.35-.74-.38-.91-.23-.55.45.46,2.45-.38,2.68-1.24.33-2.52.03-3.8.06,0-2.47.13-4.68-.03-7.16h15.29s-.08,7.09-.08,7.09c-1.25.14-2.48.26-3.72-.04-.67-.16-.06-2.13-.56-2.53-.22-.17-.82-.07-.82.39v12.66c.51.02,1.16.15,1.34.41l.03,4.32ZM130.64,38.19c-.71,0-1.01-.21-1.14-.37-.17-.21-.03-.73-.03-1.04l-.15-13.19c.74-.2,1.97-.43,2.48.07l.33,2.56c.77.13,1.44.13,2.27.03v-5.84s-13.45.01-13.45.01l.05,5.8c.58.15,1.69.26,2.02-.16l.42-2.51c.86-.22,1.74-.24,2.54.05-.12,4.88-.13,9.32,0,14.19-1.3.36-1.61,2.51-.88,3.41l5.62.15c.11-1.18.17-2.06-.06-3.16Z"/>
    <path class="st0" d="M149.05,42.28l-9.3-.27-2.34-2.47v-17.37s2.34-2.41,2.34-2.41h8.88s2.69,2.73,2.69,2.73l.02,17.4-2.28,2.39ZM148.56,41.46c.7-.42,1.85-1.33,2.13-2.1l-.17-16.62c-.8-.96-1.47-1.71-2.42-2.41l-7.79.16c-.75.02-1.67,1.27-2.07,1.91l.03,16.92c.6.67,1.41,1.88,2.35,1.91l7.94.22Z"/>
    <path class="st6" d="M100.82,37.89l-1.43-4.31,1.88-1.86-.03-5.83c0-.23.46-.18.57-.14.17.05.57.14.57.59l-.06,11.32c0,.42-1.38.61-1.5.24Z"/>
    <path class="st0" d="M111.78,18.35c-1.34.25-2.5.19-3.96.02l1.87-4.68,4.88.02-2.78,4.64ZM111.32,17.58c.88-1.01,1.27-1.92,1.83-3.07-1.05-.35-2.05-.27-3.06-.12-.34,1.1-.89,1.9-.98,3.17.47.16,1.82.45,2.21.02Z"/>
    <path class="st0" d="M196.84,18.38h-3.77s1.94-5.02,1.94-5.02l4.83-.05-3,5.07ZM196.52,17.49l2-3.54-3.02-.05c-.56,1.15-1.05,2.24-1.36,3.65.52.23,2.05.52,2.39-.07Z"/>
    <path class="st6" d="M75.71,26.44l-.48,3.62c-.69-1.14-.77-2.22-.74-3.5,0-.42,1.26-.42,1.22-.12Z"/>
    <path class="st6" d="M92.82,38.92c-.49-.87-.34-1.59-.17-2.51.4.66.99,1.45.17,2.51Z"/>
    <path class="st6" d="M177.08,38.89c-.2.17-.71.1-.81-.06-.16-.26-.16-1.07.24-1.05s.77.89.57,1.11Z"/>
    <path class="st6" d="M196.07,41.49c.21.62-.5.64-.7.49-.16-.12-.42-.29-.52-.57.35-.2,1.1-.17,1.22.07Z"/>
    <path class="st1" d="M184.92,45.32l-5.64-.97c-.24-.8-.33-2.12-.25-2.91.13-.25.95-.53.76-1l-2.89-7.14c-2.52,2.25-2.58,3.54-2.28,6.68.02.32.64.63.86.81.2.99.18,2.06.03,3.11l-5.35-.85c-.21-.8-.36-2.09,0-2.9l.95-.46c.19-.09-.03-.67-.03-1.03l-.07-13.34c0-1.73-1.84-1.55-1.01-4.86l5.53-.02.07,2.99c.01.46-.7.75-1.14.96.24,2.63.05,5.28-.02,8.01l5.81-8.08c-.44-.34-.79-.33-1.36-.37l.07-3.41,5.57.22c.9,3.54-.57,3.28-1.76,4.96l-3.71,5.22c1.74,3.4,2.96,6.85,4.46,10.31.27.33.91.52,1.32.73.23,1.13.23,2.09.09,3.37Z"/>
    <path class="st1" d="M76.84,20.78c1.99-.25,3.85-.37,5.7.08l.14,3.11-1.24.71-3.95,22.19c-1.42.63-2.9.96-4.59,1l-4.19-22.88c-.21-.35-.96-.53-1.26-.69l-.05-3.61,5.85-.03-.03,3.34c0,.26-.69.54-1.09.73l3.04,17.04,2.8-17.08-1.12-.7c-.18-1.03-.14-1.86,0-3.21Z"/>
    <path class="st1" d="M197.74,39.61l-4.62-.63c-.35,1.19-.53,2.35-.55,3.66.18.32.87.66.93.94l-.12,3.34-5.16-.92c-.28-1.1-.3-2.17-.12-3.3.12-.25.62-.49,1.05-.64l2.9-17.07c.1-.61-.91-.81-1.02-1.1-.29-.77-.2-2.23-.11-3.14l9.1-.04v3.57s-1.27.51-1.27.51l3,18.12c.18,1.11.36,1.97,1.59,2.33l-.16,3.88c-1.76-.36-3.69-.47-5.37-1.32-.43-.22-.75-3.36.53-3.98.25-1.32-.3-2.73-.61-4.21ZM197.27,36l-1.77-12.27-1.78,11.91,3.55.36Z"/>
    <path class="st1" d="M111.86,20.43h5.55c.36.9.27,1.85.22,2.88-.36.24-.67.36-1.22.53l-.04,16.08c-.66.56-1.28,1.67-2.1,1.83-2.64.54-5.25.7-7.98.55-.67-.22-1.64-1.32-1.98-1.96l-.08-16c0-.37-.75-.49-1.03-.59-.35-.86-.34-2.17-.07-3.19,1.93-.21,3.71-.26,5.61-.02.18,1,.29,2.14-.04,3.03-.14.37-.74.38-.93.51s.06,3.63.1,6.14l.11,8.71,3.82.06c.61.01,1.01-.67,1.02-1.25l.06-12.75c0-.96-.35-1.14-.88-1.78-.36-.55-.15-1.7-.12-2.77Z"/>
    <path class="st1" d="M96.11,40.21c-.92-2.02-1.45-4.02-2.13-6.28-1.14-.34-2.45-.13-3.54.47.18,2.23.15,4.14.03,6.25l1.13.7c.08,1.11.14,2.09-.08,3.13l-5.47.82-.06-3.3,1.05-.73.02-16.94c-.43-.24-.78-.3-1.35-.4v-3.14c1.55-.39,2.98-.38,4.55-.37l6.76.03,2.38,2.33v7.99s-2.02,2.12-2.02,2.12l1.92,6.87,1.38.36v2.91s-5.82.96-5.82.96l.03-3.01c0-.29.47-.69,1.23-.75ZM95.62,29.35c.42-1.33.12-2.8.16-4.01.02-.76-.58-1.34-1.27-1.33l-4.01.05c.3,3.17-.43,6.84.62,6.73l.97-.11c1.07-.12,3.1.07,3.54-1.33Z"/>
    <path class="st1" d="M158.22,38.77c.44.31,3.9.68,4.43.29.7-.51.21-1.84.51-3.27,1.09-.11,2.02-.09,3.13.16l.1,4.68-2.03,1.93-7.74-.7c-.9-.08-1.5-1.32-2.28-1.94l-.1-17.84c.68-.61,1.5-1.6,2.41-1.6l7.48.02c2.7,1.58,2.42,3.29,2.23,6.45l-3.45-.13c-.05-1.09.11-1.97-.28-3-1.61-.24-3.27-.37-4.96.01l.06,11.97c0,.9-.4,2.34.5,2.98Z"/>
    <path class="st1" d="M130.64,38.19c.23,1.1.17,1.98.06,3.16l-5.62-.15c-.72-.9-.42-3.05.88-3.41-.14-4.87-.12-9.31,0-14.19-.79-.29-1.68-.28-2.54-.05l-.42,2.51c-.33.41-1.44.31-2.02.16l-.05-5.8h13.44s0,5.83,0,5.83c-.82.1-1.5.1-2.27-.03l-.33-2.56c-.51-.5-1.73-.28-2.48-.07l.15,13.19c0,.31-.14.84.03,1.04.13.16.43.37,1.14.37Z"/>
    <path class="st1" d="M148.56,41.46l-7.94-.22c-.93-.03-1.75-1.24-2.35-1.91l-.03-16.92c.4-.64,1.32-1.89,2.07-1.91l7.79-.16c.96.69,1.62,1.45,2.42,2.41l.17,16.62c-.28.77-1.43,1.68-2.13,2.1ZM147.17,38.19l-.06-13.19c0-.55-.27-1.02-.55-1.26-.46-.39-3.3-.56-4.95.15l-.02,13.15c0,1.62,2.72,1.6,5.58,1.16Z"/>
    <path class="st1" d="M111.32,17.58c-.38.44-1.74.14-2.21-.02.09-1.28.64-2.07.98-3.17,1.01-.15,2.01-.23,3.06.12-.56,1.15-.95,2.07-1.83,3.07Z"/>
    <path class="st1" d="M196.52,17.49c-.33.59-1.87.3-2.39.07.31-1.41.8-2.5,1.36-3.65l3.02.05-2,3.54Z"/>
    <path class="st0" d="M197.27,36l-3.55-.36,1.78-11.91,1.77,12.27ZM196.5,35.07l-1.01-6.46-1,6.16c.65.4,1.18.47,2.01.3Z"/>
    <path class="st0" d="M95.62,29.35c-.44,1.41-2.47,1.21-3.54,1.33l-.97.11c-1.05.12-.32-3.55-.62-6.73l4.01-.05c.69,0,1.29.57,1.27,1.33-.04,1.2.26,2.67-.16,4.01ZM94.79,29.44c.78-1.45.42-3.36.04-4.68-1.31-.24-2.34-.15-3.65-.04l.06,5.15c1.03.02,2.79.38,3.55-.43Z"/>
    <path class="st0" d="M147.17,38.19c-2.86.44-5.58.46-5.58-1.16l.02-13.15c1.65-.71,4.49-.54,4.95-.15.28.24.55.72.55,1.26l.06,13.19ZM146.47,37.58l-.1-13.16c-1.37-.33-2.76-.5-4.1-.1v13.26c1.48.27,2.73.22,4.2,0Z"/>
    <path class="st4" d="M196.5,35.07c-.83.18-1.36.1-2.01-.3l1-6.16,1.01,6.46Z"/>
    <path class="st4" d="M94.79,29.44c-.76.81-2.52.45-3.55.43l-.06-5.15c1.31-.11,2.34-.2,3.65.04.38,1.32.74,3.23-.04,4.68ZM93.55,25.84c-.29-.15-.92-.07-1.14.18-.28.31-.28,2.36.11,2.75.25.25.79.2,1.02,0,.63-.53.54-2.65.01-2.93Z"/>
    <path class="st2" d="M146.47,37.58c-1.48.22-2.72.27-4.21,0v-13.26c1.35-.4,2.74-.23,4.11.1l.1,13.16Z"/>
  </g>
  <g>
    <rect class="st2" x="105.25" y="48.26" width="60" height="14.53" rx="7.26" ry="7.26"/>
    <text class="st5" transform="translate(111.33 57.95)"><tspan x="0" y="0">BRATISLAVA</tspan></text>
  </g>
  <g>
    <text class="st3" transform="translate(89.49 8.9)"><tspan x="0" y="0" xml:space="preserve">ZÁKLADNÁ  ŠKOLA</tspan></text>
    <polygon class="st4" points="82.92 9.16 82.66 6.71 80.25 6.21 82.5 5.2 82.23 2.76 83.88 4.58 86.12 3.58 84.9 5.71 86.55 7.53 84.14 7.03 82.92 9.16"/>
    <polygon class="st4" points="187.92 9.17 186.48 7.19 184.14 7.95 185.58 5.96 184.14 3.97 186.48 4.73 187.92 2.74 187.92 5.2 190.25 5.96 187.92 6.72 187.92 9.17"/>
  </g>
</svg>