<?xml version="1.0" encoding="UTF-8"?>
<svg width="105px" height="91px" viewBox="0 0 105 91" version="1.1" xmlns="http://www.w3.org/2000/svg" xmlns:xlink="http://www.w3.org/1999/xlink">
    <title>Group 57</title>
    <defs>
        <polygon id="path-1" points="0 90 104.845 90 104.845 0.784 0 0.784"></polygon>
    </defs>
    <g id="Pages" stroke="none" stroke-width="1" fill="none" fill-rule="evenodd">
        <g id="BVS---modra-skola---uvod" transform="translate(-40.000000, -70.000000)">
            <g id="Group-57" transform="translate(40.000000, 70.000000)">
                <polygon id="Fill-1" fill="#1ca5dd" points="4.3218 84.8802 3.0758 88.6552 1.8118 84.8802 -0.0002 84.8802 2.1198 90.1262 3.9988 90.1262 6.0818 84.8802"></polygon>
                <g id="Group-56" transform="translate(0.000000, 0.216300)">
                    <path d="M8.052,87.2981 C8.052,87.8271 8.156,88.2081 8.367,88.4391 C8.578,88.6721 8.865,88.7851 9.227,88.7851 C9.599,88.7851 9.888,88.6731 10.092,88.4461 C10.295,88.2201 10.398,87.8131 10.398,87.2261 C10.398,86.7331 10.291,86.3721 10.079,86.1441 C9.866,85.9151 9.576,85.8021 9.211,85.8021 C8.863,85.8021 8.582,85.9171 8.37,86.1491 C8.157,86.3811 8.052,86.7631 8.052,87.2981 M6.319,87.2911 C6.319,86.4351 6.573,85.7671 7.084,85.2901 C7.594,84.8131 8.304,84.5751 9.215,84.5751 C10.149,84.5751 10.869,84.8101 11.373,85.2771 C11.879,85.7471 12.131,86.4031 12.131,87.2481 C12.131,87.8601 12.021,88.3631 11.8,88.7571 C11.579,89.1491 11.26,89.4541 10.844,89.6721 C10.427,89.8911 9.907,89.9991 9.284,89.9991 C8.651,89.9991 8.128,89.9051 7.713,89.7171 C7.3,89.5291 6.963,89.2301 6.705,88.8221 C6.447,88.4141 6.319,87.9031 6.319,87.2911" id="Fill-2" fill="#1ca5dd"></path>
                    <path d="M14.9788,85.8518 L14.9788,88.7188 L15.4028,88.7188 C15.7668,88.7188 16.0238,88.6808 16.1768,88.6058 C16.3298,88.5308 16.4498,88.4008 16.5368,88.2128 C16.6228,88.0248 16.6658,87.7208 16.6658,87.3018 C16.6658,86.7458 16.5698,86.3648 16.3748,86.1598 C16.1818,85.9558 15.8598,85.8518 15.4118,85.8518 L14.9788,85.8518 Z M13.2448,84.6638 L15.8208,84.6638 C16.3288,84.6638 16.7388,84.7298 17.0508,84.8568 C17.3638,84.9858 17.6218,85.1718 17.8258,85.4128 C18.0288,85.6528 18.1778,85.9328 18.2698,86.2528 C18.3618,86.5738 18.4068,86.9118 18.4068,87.2698 C18.4068,87.8298 18.3378,88.2648 18.2028,88.5738 C18.0658,88.8828 17.8758,89.1418 17.6348,89.3508 C17.3918,89.5588 17.1308,89.6978 16.8538,89.7668 C16.4748,89.8618 16.1288,89.9108 15.8208,89.9108 L13.2448,89.9108 L13.2448,84.6638 Z" id="Fill-4" fill="#1ca5dd"></path>
                    <path d="M22.2278,87.9104 L21.6098,86.0244 L20.9958,87.9104 L22.2278,87.9104 Z M22.5878,89.0434 L20.6198,89.0434 L20.3458,89.9104 L18.5758,89.9104 L20.6848,84.6644 L22.5758,84.6644 L24.6838,89.9104 L22.8688,89.9104 L22.5878,89.0434 Z" id="Fill-6" fill="#1ca5dd"></path>
                    <path d="M29.8958,86.9006 L30.3198,86.9006 C30.6548,86.9006 30.8888,86.8466 31.0258,86.7376 C31.1598,86.6296 31.2258,86.4906 31.2258,86.3206 C31.2258,86.1566 31.1678,86.0166 31.0498,85.9026 C30.9328,85.7886 30.7128,85.7306 30.3888,85.7306 L29.8958,85.7306 L29.8958,86.9006 Z M28.1538,84.6646 L31.0368,84.6646 C31.6638,84.6646 32.1328,84.8046 32.4468,85.0836 C32.7588,85.3616 32.9148,85.7586 32.9148,86.2736 C32.9148,86.8046 32.7458,87.2176 32.4048,87.5156 C32.0638,87.8146 31.5428,87.9636 30.8438,87.9636 L29.8958,87.9636 L29.8958,89.9106 L28.1538,89.9106 L28.1538,84.6646 Z" id="Fill-8" fill="#1ca5dd"></path>
                    <path d="M35.7424,86.7898 L36.4744,86.7898 C36.5544,86.7898 36.7054,86.7658 36.9334,86.7178 C37.0474,86.6968 37.1414,86.6418 37.2164,86.5528 C37.2874,86.4658 37.3234,86.3638 37.3234,86.2498 C37.3234,86.0798 37.2654,85.9508 37.1514,85.8588 C37.0364,85.7698 36.8214,85.7228 36.5044,85.7228 L35.7424,85.7228 L35.7424,86.7898 Z M34.0014,89.9098 L34.0014,84.6638 L36.8914,84.6638 C37.4274,84.6638 37.8364,84.7068 38.1194,84.7928 C38.4024,84.8788 38.6314,85.0378 38.8054,85.2698 C38.9774,85.5018 39.0644,85.7858 39.0644,86.1208 C39.0644,86.4118 38.9984,86.6618 38.8654,86.8748 C38.7324,87.0848 38.5514,87.2568 38.3174,87.3868 C38.1694,87.4698 37.9674,87.5408 37.7084,87.5958 C37.9154,87.6588 38.0654,87.7248 38.1604,87.7878 C38.2244,87.8318 38.3164,87.9228 38.4374,88.0638 C38.5584,88.2048 38.6394,88.3128 38.6814,88.3898 L39.5194,89.9098 L37.5604,89.9098 L36.6354,88.3068 C36.5174,88.0998 36.4124,87.9648 36.3204,87.9018 C36.1954,87.8218 36.0544,87.7808 35.8954,87.7808 L35.7424,87.7808 L35.7424,89.9098 L34.0014,89.9098 Z" id="Fill-10" fill="#1ca5dd"></path>
                    <polygon id="Fill-12" fill="#1ca5dd" points="40.2288 84.6638 44.8738 84.6638 44.8738 85.7838 41.9658 85.7838 41.9658 86.6178 44.6638 86.6178 44.6638 87.6878 41.9658 87.6878 41.9658 88.7218 44.9578 88.7218 44.9578 89.9098 40.2288 89.9098"></polygon>
                    <path d="M50.5725,88.7825 L51.4565,88.7825 C51.7535,88.7825 51.9645,88.7335 52.0875,88.6335 C52.2095,88.5345 52.2705,88.4015 52.2705,88.2355 C52.2705,88.0805 52.2105,87.9565 52.0895,87.8605 C51.9675,87.7675 51.7555,87.7195 51.4525,87.7195 L50.5725,87.7195 L50.5725,88.7825 Z M50.5725,86.7215 L51.3255,86.7215 C51.5945,86.7215 51.7845,86.6775 51.8895,86.5905 C51.9965,86.5035 52.0495,86.3785 52.0495,86.2135 C52.0495,86.0615 51.9965,85.9415 51.8895,85.8555 C51.7845,85.7695 51.5995,85.7265 51.3375,85.7265 L50.5725,85.7265 L50.5725,86.7215 Z M48.8225,84.6635 L52.0685,84.6635 C52.6095,84.6635 53.0225,84.7895 53.3125,85.0395 C53.6025,85.2905 53.7485,85.5995 53.7485,85.9705 C53.7485,86.2805 53.6445,86.5465 53.4375,86.7685 C53.3015,86.9155 53.0975,87.0325 52.8335,87.1185 C53.2365,87.2095 53.5335,87.3655 53.7225,87.5865 C53.9145,87.8065 54.0085,88.0845 54.0085,88.4175 C54.0085,88.6895 53.9395,88.9355 53.8045,89.1515 C53.6705,89.3685 53.4865,89.5405 53.2515,89.6665 C53.1055,89.7445 52.8855,89.8035 52.5935,89.8385 C52.2025,89.8865 51.9435,89.9105 51.8135,89.9105 L48.8225,89.9105 L48.8225,84.6635 Z" id="Fill-14" fill="#1ca5dd"></path>
                    <path d="M58.5208,84.6638 L60.2498,84.6638 L60.2498,87.7898 C60.2498,88.0988 60.1988,88.3918 60.0948,88.6678 C59.9928,88.9418 59.8298,89.1838 59.6098,89.3888 C59.3878,89.5958 59.1568,89.7408 58.9158,89.8238 C58.5768,89.9408 58.1728,89.9998 57.7018,89.9998 C57.4278,89.9998 57.1298,89.9808 56.8078,89.9458 C56.4858,89.9098 56.2148,89.8398 55.9978,89.7318 C55.7818,89.6268 55.5818,89.4758 55.4028,89.2798 C55.2238,89.0848 55.1008,88.8828 55.0338,88.6758 C54.9268,88.3418 54.8728,88.0468 54.8728,87.7898 L54.8728,84.6638 L56.6028,84.6638 L56.6028,87.8628 C56.6028,88.1498 56.6878,88.3728 56.8578,88.5338 C57.0268,88.6948 57.2628,88.7758 57.5638,88.7758 C57.8618,88.7758 58.0968,88.6958 58.2658,88.5368 C58.4358,88.3798 58.5208,88.1538 58.5208,87.8628 L58.5208,84.6638 Z" id="Fill-16" fill="#1ca5dd"></path>
                    <path d="M63.3118,85.8518 L63.3118,88.7188 L63.7358,88.7188 C64.0998,88.7188 64.3558,88.6808 64.5088,88.6058 C64.6618,88.5308 64.7828,88.4008 64.8698,88.2128 C64.9548,88.0248 64.9988,87.7208 64.9988,87.3018 C64.9988,86.7458 64.9018,86.3648 64.7078,86.1598 C64.5148,85.9558 64.1938,85.8518 63.7448,85.8518 L63.3118,85.8518 Z M61.5778,84.6638 L64.1528,84.6638 C64.6618,84.6638 65.0718,84.7298 65.3838,84.8568 C65.6978,84.9858 65.9548,85.1718 66.1598,85.4128 C66.3628,85.6528 66.5108,85.9328 66.6038,86.2528 C66.6948,86.5738 66.7398,86.9118 66.7398,87.2698 C66.7398,87.8298 66.6728,88.2648 66.5358,88.5738 C66.3988,88.8828 66.2098,89.1418 65.9678,89.3508 C65.7248,89.5588 65.4658,89.6978 65.1868,89.7668 C64.8068,89.8618 64.4628,89.9108 64.1528,89.9108 L61.5778,89.9108 L61.5778,84.6638 Z" id="Fill-18" fill="#1ca5dd"></path>
                    <path d="M70.4563,83.2761 L71.7953,83.2761 L70.5603,84.3461 L69.8133,84.3461 L70.4563,83.2761 Z M71.4593,84.6641 L73.1883,84.6641 L73.1883,87.7901 C73.1883,88.0991 73.1383,88.3921 73.0333,88.6681 C72.9313,88.9421 72.7693,89.1841 72.5483,89.3891 C72.3263,89.5961 72.0963,89.7411 71.8533,89.8231 C71.5173,89.9411 71.1103,89.9991 70.6413,89.9991 C70.3663,89.9991 70.0693,89.9811 69.7453,89.9451 C69.4233,89.9101 69.1533,89.8391 68.9363,89.7331 C68.7213,89.6271 68.5213,89.4771 68.3423,89.2811 C68.1623,89.0851 68.0383,88.8831 67.9723,88.6761 C67.8653,88.3421 67.8113,88.0471 67.8113,87.7901 L67.8113,84.6641 L69.5413,84.6641 L69.5413,87.8631 C69.5413,88.1491 69.6273,88.3731 69.7963,88.5341 C69.9673,88.6951 70.2013,88.7761 70.5023,88.7761 C70.8023,88.7761 71.0353,88.6971 71.2043,88.5381 C71.3743,88.3801 71.4593,88.1541 71.4593,87.8631 L71.4593,84.6641 Z" id="Fill-20" fill="#1ca5dd"></path>
                    <path d="M78.2288,87.7629 L79.7488,88.1929 C79.6458,88.5899 79.4848,88.9239 79.2668,89.1899 C79.0458,89.4569 78.7748,89.6599 78.4498,89.7959 C78.1248,89.9319 77.7078,89.9989 77.2078,89.9989 C76.5958,89.9989 76.0988,89.9169 75.7118,89.7509 C75.3258,89.5849 74.9938,89.2939 74.7108,88.8769 C74.4308,88.4589 74.2908,87.9249 74.2908,87.2739 C74.2908,86.4069 74.5378,85.7399 75.0318,85.2739 C75.5248,84.8079 76.2248,84.5749 77.1258,84.5749 C77.8328,84.5749 78.3908,84.7089 78.7928,84.9759 C79.1988,85.2429 79.4988,85.6529 79.6948,86.2059 L78.1638,86.5249 C78.1108,86.3649 78.0538,86.2479 77.9958,86.1749 C77.8988,86.0499 77.7798,85.9549 77.6388,85.8879 C77.4988,85.8209 77.3418,85.7889 77.1688,85.7889 C76.7758,85.7889 76.4748,85.9359 76.2668,86.2299 C76.1078,86.4499 76.0288,86.7939 76.0288,87.2639 C76.0288,87.8449 76.1228,88.2439 76.3118,88.4589 C76.4998,88.6749 76.7668,88.7829 77.1078,88.7829 C77.4398,88.7829 77.6898,88.6959 77.8598,88.5219 C78.0288,88.3469 78.1518,88.0939 78.2288,87.7629" id="Fill-22" fill="#1ca5dd"></path>
                    <polygon id="Fill-24" fill="#1ca5dd" points="80.759 84.6638 82.378 84.6638 84.49 87.5658 84.49 84.6638 86.124 84.6638 86.124 89.9098 84.49 89.9098 82.389 87.0288 82.389 89.9098 80.759 89.9098"></polygon>
                    <path d="M88.9485,87.2981 C88.9485,87.8271 89.0525,88.2081 89.2635,88.4391 C89.4745,88.6721 89.7605,88.7851 90.1235,88.7851 C90.4945,88.7851 90.7835,88.6731 90.9885,88.4461 C91.1925,88.2201 91.2935,87.8131 91.2935,87.2261 C91.2935,86.7331 91.1885,86.3721 90.9735,86.1441 C90.7625,85.9151 90.4715,85.8021 90.1075,85.8021 C89.7575,85.8021 89.4785,85.9171 89.2665,86.1491 C89.0545,86.3811 88.9485,86.7631 88.9485,87.2981 M87.2145,87.2911 C87.2145,86.4351 87.4695,85.7671 87.9795,85.2901 C88.4905,84.8131 89.2005,84.5751 90.1125,84.5751 C91.0455,84.5751 91.7645,84.8101 92.2695,85.2771 C92.7745,85.7471 93.0275,86.4031 93.0275,87.2481 C93.0275,87.8601 92.9165,88.3631 92.6955,88.7571 C92.4755,89.1491 92.1565,89.4541 91.7405,89.6721 C91.3225,89.8911 90.8025,89.9991 90.1805,89.9991 C89.5475,89.9991 89.0245,89.9051 88.6095,89.7171 C88.1945,89.5291 87.8585,89.2301 87.6015,88.8221 C87.3425,88.4141 87.2145,87.9031 87.2145,87.2911" id="Fill-26" fill="#1ca5dd"></path>
                    <path d="M93.8157,88.1746 L95.4647,88.0786 C95.5017,88.3276 95.5727,88.5186 95.6827,88.6506 C95.8617,88.8636 96.1177,88.9686 96.4487,88.9686 C96.6957,88.9686 96.8857,88.9146 97.0217,88.8056 C97.1547,88.6966 97.2207,88.5726 97.2207,88.4276 C97.2207,88.2916 97.1577,88.1706 97.0297,88.0636 C96.9027,87.9566 96.6067,87.8536 96.1437,87.7596 C95.3817,87.5986 94.8397,87.3866 94.5157,87.1216 C94.1887,86.8586 94.0267,86.5196 94.0267,86.1096 C94.0267,85.8396 94.1097,85.5856 94.2767,85.3456 C94.4437,85.1066 94.6957,84.9176 95.0307,84.7806 C95.3657,84.6436 95.8257,84.5746 96.4107,84.5746 C97.1287,84.5746 97.6737,84.6986 98.0507,84.9486 C98.4267,85.1986 98.6497,85.5946 98.7227,86.1386 L97.0867,86.2286 C97.0447,85.9916 96.9537,85.8206 96.8147,85.7126 C96.6747,85.6056 96.4837,85.5526 96.2377,85.5526 C96.0357,85.5526 95.8847,85.5916 95.7827,85.6716 C95.6807,85.7506 95.6307,85.8476 95.6307,85.9626 C95.6307,86.0456 95.6717,86.1206 95.7557,86.1896 C95.8377,86.2586 96.0317,86.3226 96.3377,86.3826 C97.0957,86.5346 97.6387,86.6896 97.9657,86.8456 C98.2947,87.0006 98.5327,87.1946 98.6817,87.4266 C98.8327,87.6586 98.9057,87.9166 98.9057,88.2036 C98.9057,88.5386 98.8057,88.8486 98.6067,89.1336 C98.4077,89.4166 98.1297,89.6326 97.7717,89.7796 C97.4167,89.9266 96.9647,89.9996 96.4217,89.9996 C95.4677,89.9996 94.8067,89.8286 94.4387,89.4836 C94.0717,89.1396 93.8637,88.7046 93.8157,88.1746" id="Fill-28" fill="#1ca5dd"></path>
                    <path d="M102.7405,84.321 L101.6385,84.321 L100.7895,83.298 L101.7345,83.298 L102.2015,83.845 L102.6675,83.298 L103.6215,83.298 L102.7405,84.321 Z M99.5425,84.664 L104.8115,84.664 L104.8115,85.959 L103.0425,85.959 L103.0425,89.91 L101.3095,89.91 L101.3095,85.959 L99.5425,85.959 L99.5425,84.664 Z" id="Fill-30" fill="#1ca5dd"></path>
                    <polygon id="Fill-32" fill="#1ca5dd" points="21.7298 26.9866 16.4208 26.9866 16.4208 12.9516 12.5848 22.0596 8.9018 22.0596 5.0658 12.9516 5.0658 26.9866 0.0338 26.9866 0.0338 6.0246 6.2328 6.0246 10.8898 16.5406 15.5318 6.0246 21.7298 6.0246"></polygon>
                    <path d="M37.1956,21.6091 C37.7146,20.9951 38.0976,20.2721 38.3506,19.4401 C38.6006,18.6071 38.7266,17.6261 38.7266,16.5011 C38.7266,15.2931 38.5816,14.2661 38.2936,13.4191 C38.0076,12.5711 37.6306,11.8871 37.1686,11.3641 C36.6956,10.8231 36.1516,10.4311 35.5356,10.1891 C34.9186,9.9451 34.2776,9.8231 33.6096,9.8231 C32.9346,9.8231 32.2966,9.9391 31.6996,10.1751 C31.1016,10.4081 30.5506,10.7961 30.0506,11.3371 C29.5886,11.8411 29.2096,12.5381 28.9186,13.4251 C28.6266,14.3121 28.4816,15.3421 28.4816,16.5121 C28.4816,17.7111 28.6226,18.7311 28.9056,19.5741 C29.1866,20.4171 29.5606,21.1041 30.0246,21.6371 C30.4876,22.1671 31.0306,22.5591 31.6506,22.8111 C32.2706,23.0651 32.9236,23.1901 33.6096,23.1901 C34.2956,23.1901 34.9496,23.0601 35.5696,22.8051 C36.1916,22.5481 36.7316,22.1491 37.1956,21.6091 M44.2716,16.5121 C44.2716,19.7211 43.3256,22.2701 41.4336,24.1561 C39.5456,26.0431 36.9326,26.9861 33.5956,26.9861 C30.2696,26.9861 27.6606,26.0431 25.7706,24.1561 C23.8806,22.2701 22.9376,19.7211 22.9376,16.5121 C22.9376,13.2781 23.8806,10.7221 25.7706,8.8431 C27.6606,6.9631 30.2696,6.0251 33.5956,6.0251 C36.9126,6.0251 39.5226,6.9631 41.4216,8.8431 C43.3216,10.7221 44.2716,13.2781 44.2716,16.5121" id="Fill-34" fill="#1ca5dd"></path>
                    <path d="M59.5344,16.4836 C59.5344,15.1046 59.2864,13.9246 58.7904,12.9446 C58.2974,11.9646 57.5114,11.1966 56.4344,10.6426 C55.8884,10.3706 55.3304,10.1846 54.7624,10.0856 C54.1904,9.9866 53.3314,9.9386 52.1824,9.9386 L50.8334,9.9386 L50.8334,23.0576 L52.1824,23.0576 C53.4504,23.0576 54.3834,23.0006 54.9754,22.8826 C55.5684,22.7656 56.1484,22.5506 56.7144,22.2416 C57.6864,21.6786 58.3994,20.9256 58.8554,19.9816 C59.3074,19.0406 59.5344,17.8736 59.5344,16.4836 M65.0534,16.5266 C65.0534,18.4806 64.6124,20.2286 63.7324,21.7706 C62.8514,23.3136 61.7404,24.5006 60.3964,25.3256 C59.3864,25.9436 58.2804,26.3766 57.0744,26.6216 C55.8704,26.8656 54.4424,26.9866 52.7944,26.9866 L45.4964,26.9866 L45.4964,6.0256 L53.0024,6.0256 C54.6884,6.0256 56.1434,6.1676 57.3654,6.4546 C58.5904,6.7396 59.6174,7.1456 60.4514,7.6726 C61.8794,8.5546 63.0024,9.7436 63.8234,11.2406 C64.6424,12.7386 65.0534,14.4996 65.0534,16.5266" id="Fill-36" fill="#1ca5dd"></path>
                    <path d="M77.885,12.4456 C77.885,11.9206 77.779,11.4686 77.566,11.0926 C77.352,10.7166 76.986,10.4226 76.467,10.2076 C76.106,10.0556 75.684,9.9646 75.202,9.9316 C74.721,9.8986 74.161,9.8826 73.522,9.8826 L71.588,9.8826 L71.588,15.5266 L73.23,15.5266 C74.081,15.5266 74.793,15.4856 75.368,15.4006 C75.943,15.3166 76.424,15.1246 76.814,14.8226 C77.184,14.5326 77.456,14.2116 77.627,13.8586 C77.798,13.5056 77.885,13.0356 77.885,12.4456 L77.885,12.4456 Z M86.21,26.9866 L79.692,26.9866 L74.063,19.3006 L71.588,19.3006 L71.588,26.9866 L66.281,26.9866 L66.281,6.0246 L75.231,6.0246 C76.454,6.0246 77.503,6.0946 78.385,6.2356 C79.264,6.3756 80.089,6.6826 80.859,7.1516 C81.637,7.6206 82.256,8.2276 82.714,8.9736 C83.171,9.7186 83.403,10.6556 83.403,11.7816 C83.403,13.3306 83.048,14.5936 82.338,15.5686 C81.631,16.5456 80.618,17.3566 79.301,18.0046 L86.21,26.9866 Z" id="Fill-38" fill="#1ca5dd"></path>
                    <path d="M96.6087,18.9055 L94.0617,11.3955 L91.5147,18.9055 L96.6087,18.9055 Z M104.8447,26.9865 L99.3327,26.9865 L97.8907,22.7495 L90.2337,22.7495 L88.7927,26.9865 L83.4137,26.9865 L91.0557,6.0245 L97.2007,6.0245 L104.8447,26.9865 Z" id="Fill-40" fill="#1ca5dd"></path>
                    <path d="M17.6048,49.2561 C17.6048,51.3251 16.7428,53.0031 15.0118,54.2981 C13.2858,55.5901 10.9368,56.2351 7.9728,56.2351 C6.2568,56.2351 4.7638,56.0821 3.4888,55.7781 C2.2148,55.4721 1.1468,55.0841 0.0348,54.6151 L0.0348,49.5801 L0.4928,49.5801 C1.5968,50.4731 2.8318,51.1591 4.1978,51.6391 C5.5658,52.1171 6.8778,52.3561 8.1388,52.3561 C8.4628,52.3561 8.8898,52.3311 9.4178,52.2741 C9.9458,52.2171 10.3758,52.1221 10.7098,51.9901 C11.1198,51.8211 11.4548,51.6101 11.7188,51.3561 C11.9828,51.1021 12.1148,50.7281 12.1148,50.2281 C12.1148,49.7671 11.9208,49.3721 11.5378,49.0371 C11.1528,48.7041 10.5908,48.4461 9.8498,48.2681 C9.0688,48.0811 8.2498,47.9041 7.3808,47.7401 C6.5148,47.5751 5.7028,47.3681 4.9408,47.1111 C3.2008,46.5371 1.9458,45.7591 1.1818,44.7771 C0.4168,43.7951 0.0348,42.5761 0.0348,41.1191 C0.0348,39.1621 0.8988,37.5661 2.6268,36.3311 C4.3558,35.0941 6.5768,34.4771 9.2918,34.4771 C10.6538,34.4771 12.0008,34.6121 13.3308,34.8771 C14.6608,35.1471 15.8118,35.4811 16.7858,35.8871 L16.7858,40.7231 L16.2148,40.7231 C15.3798,40.0471 14.3598,39.4801 13.1498,39.0241 C11.9418,38.5671 10.7058,38.3401 9.4448,38.3401 C9.0008,38.3401 8.5588,38.3721 8.1178,38.4321 C7.6768,38.4931 7.2528,38.6081 6.8438,38.7771 C6.4848,38.9191 6.1738,39.1301 5.9158,39.4191 C5.6558,39.7061 5.5248,40.0321 5.5248,40.4001 C5.5248,40.9531 5.7338,41.3801 6.1508,41.6741 C6.5678,41.9701 7.3568,42.2411 8.5158,42.4871 C9.2748,42.6461 10.0028,42.8011 10.7048,42.9511 C11.4028,43.1021 12.1568,43.3101 12.9628,43.5731 C14.5458,44.0981 15.7168,44.8161 16.4718,45.7221 C17.2278,46.6291 17.6048,47.8081 17.6048,49.2561" id="Fill-42" fill="#1ca5dd"></path>
                    <polygon id="Fill-44" fill="#1ca5dd" points="40.4173 55.8093 33.8593 55.8093 27.6713 47.4193 26.4333 48.9703 26.4333 55.8093 21.0963 55.8093 21.0963 34.8473 26.4333 34.8473 26.4333 44.3443 33.8283 34.8473 40.0143 34.8473 31.9253 44.5463"></polygon>
                    <polygon id="Fill-46" fill="#1ca5dd" points="81.72 55.8459 66.791 55.8459 66.791 34.8469 72.13 34.8469 72.13 51.7829 81.72 51.7829"></polygon>
                    <path d="M96.6077,47.7517 L94.0617,40.2297 L91.5157,47.7517 L96.6077,47.7517 Z M104.8447,55.8467 L99.3327,55.8467 L97.8907,51.6007 L90.2317,51.6007 L88.7897,55.8467 L83.4087,55.8467 L91.0547,34.8477 L97.1997,34.8477 L104.8447,55.8467 Z" id="Fill-48" fill="#1ca5dd"></path>
                    <path d="M59.1262,61.05 L104.8442,61.05 L104.8442,66.406 L65.7342,66.406 C63.3382,72.342 59.1262,76.543 52.3982,76.543 C45.6722,76.543 41.4582,72.342 39.0222,66.406 L0.0332,66.406 L0.0332,61.05 L45.6302,61.05 C45.2822,61.911 45.0902,62.893 45.0902,63.835 C45.0902,67.918 48.3772,71.256 52.3982,71.256 C56.4212,71.256 59.6702,67.918 59.6702,63.835 C59.6702,62.893 59.4782,61.911 59.1262,61.05" id="Fill-50" fill="#1ca5dd"></path>
                    <mask id="mask-2" fill="white">
                        <use xlink:href="#path-1"></use>
                    </mask>
                    <g id="Clip-53"></g>
                    <polygon id="Fill-52" fill="#1ca5dd" mask="url(#mask-2)" points="4.26 32.227 13.807 32.227 13.807 29.607 4.26 29.607"></polygon>
                    <polygon id="Fill-54" fill="#1ca5dd" mask="url(#mask-2)" points="89.356 3.405 98.903 3.405 98.903 0.784 89.356 0.784"></polygon>
                    <path d="M63.0833,45.5076 C63.0833,42.2196 62.1363,39.6206 60.2403,37.7116 C58.3463,35.8016 55.7423,34.8466 52.4323,34.8466 C49.1123,34.8466 46.5103,35.8016 44.6233,37.7116 C42.7373,39.6206 41.7953,42.2196 41.7953,45.5076 C41.7953,48.7676 42.7373,51.3586 44.6233,53.2756 C45.9463,54.6216 47.6233,55.4936 49.6513,55.8966 C50.5533,54.6296 51.3823,53.3926 51.8963,52.2636 C51.4113,52.2116 50.9413,52.0966 50.4893,51.9096 C49.8703,51.6536 49.3293,51.2546 48.8673,50.7136 C48.4053,50.1736 48.0323,49.4746 47.7513,48.6186 C47.4703,47.7626 47.3283,46.7256 47.3283,45.5076 C47.3283,44.3166 47.4743,43.2716 47.7653,42.3686 C48.0573,41.4666 48.4343,40.7596 48.8953,40.2466 C49.3953,39.6956 49.9413,39.3036 50.5383,39.0646 C51.1363,38.8266 51.7713,38.7076 52.4453,38.7076 C53.1113,38.7076 53.7513,38.8306 54.3663,39.0786 C54.9813,39.3256 55.5233,39.7236 55.9963,40.2726 C56.4583,40.8056 56.8333,41.5016 57.1193,42.3616 C57.4063,43.2226 57.5513,44.2676 57.5513,45.4936 C57.5513,46.6386 57.4253,47.6336 57.1763,48.4816 C56.9263,49.3286 56.5413,50.0636 56.0253,50.6866 C55.5623,51.2356 55.0213,51.6416 54.4013,51.9026 C53.9503,52.0926 53.4803,52.2116 52.9933,52.2626 C53.5153,53.3846 54.3473,54.6196 55.2473,55.8906 C57.2683,55.4866 58.9373,54.6156 60.2553,53.2756 C62.1403,51.3586 63.0833,48.7676 63.0833,45.5076" id="Fill-55" fill="#1ca5dd" mask="url(#mask-2)"></path>
                </g>
            </g>
        </g>
    </g>
</svg>